<svg width="40" height="43" viewBox="0 0 40 43" fill="none" xmlns="http://www.w3.org/2000/svg">
<path d="M19.9998 0.246181C25.3041 0.246181 30.3912 2.45882 34.1419 6.39735C37.8926 10.3359 39.9998 15.6777 39.9998 21.2476C39.9998 26.8175 37.8926 32.1593 34.1419 36.0978C30.3912 40.0363 25.3041 42.249 19.9998 42.249C14.6954 42.249 9.60835 40.0363 5.85762 36.0978C2.10689 32.1593 -0.000244141 26.8175 -0.000244141 21.2476C-0.000244141 15.6777 2.10689 10.3359 5.85762 6.39735C9.60835 2.45882 14.6954 0.246181 19.9998 0.246181ZM11.2498 19.935C10.9182 19.935 10.6003 20.0733 10.3659 20.3194C10.1315 20.5656 9.99976 20.8995 9.99976 21.2476C9.99976 21.5957 10.1315 21.9296 10.3659 22.1757C10.6003 22.4219 10.9182 22.5602 11.2498 22.5602L25.7323 22.5602L20.3648 28.1938C20.13 28.4402 19.9982 28.7745 19.9982 29.1231C19.9982 29.4717 20.13 29.8059 20.3648 30.0524C20.5995 30.2989 20.9178 30.4373 21.2498 30.4373C21.5817 30.4373 21.9 30.2989 22.1348 30.0524L29.6348 22.1769C29.7512 22.055 29.8435 21.9101 29.9065 21.7506C29.9696 21.5912 30.002 21.4202 30.002 21.2476C30.002 21.0749 29.9696 20.904 29.9065 20.7445C29.8435 20.585 29.7512 20.4402 29.6348 20.3183L22.1348 12.4427C21.9 12.1963 21.5817 12.0578 21.2498 12.0578C20.9178 12.0578 20.5995 12.1963 20.3648 12.4427C20.13 12.6892 19.9982 13.0235 19.9982 13.372C19.9982 13.7206 20.13 14.0549 20.3648 14.3014L25.7323 19.935L11.2498 19.935Z" fill="white"/>
</svg>
