<svg width="40" height="40" viewBox="0 0 40 40" fill="none" xmlns="http://www.w3.org/2000/svg">
<path d="M27.135 17.865C27.2514 17.9811 27.3438 18.1191 27.4068 18.2709C27.4698 18.4228 27.5022 18.5856 27.5022 18.75C27.5022 18.9144 27.4698 19.0772 27.4068 19.2291C27.3438 19.381 27.2514 19.5189 27.135 19.635L19.635 27.135C19.5189 27.2514 19.3809 27.3438 19.2291 27.4068C19.0772 27.4698 18.9144 27.5022 18.75 27.5022C18.5856 27.5022 18.4228 27.4698 18.2709 27.4068C18.119 27.3438 17.9811 27.2514 17.865 27.135L14.115 23.385C13.9988 23.2688 13.9066 23.1308 13.8437 22.979C13.7808 22.8271 13.7484 22.6644 13.7484 22.5C13.7484 22.3356 13.7808 22.1729 13.8437 22.021C13.9066 21.8692 13.9988 21.7312 14.115 21.615C14.3497 21.3803 14.6681 21.2484 15 21.2484C15.1644 21.2484 15.3271 21.2808 15.479 21.3437C15.6308 21.4066 15.7688 21.4988 15.885 21.615L18.75 24.4825L25.365 17.865C25.4811 17.7486 25.619 17.6562 25.7709 17.5932C25.9228 17.5302 26.0856 17.4978 26.25 17.4978C26.4144 17.4978 26.5772 17.5302 26.7291 17.5932C26.8809 17.6562 27.0189 17.7486 27.135 17.865Z" fill="#633C01"/>
<path d="M8.75 0C9.08152 0 9.39946 0.131696 9.63388 0.366117C9.8683 0.600537 10 0.918479 10 1.25V2.5H30V1.25C30 0.918479 30.1317 0.600537 30.3661 0.366117C30.6005 0.131696 30.9185 0 31.25 0C31.5815 0 31.8995 0.131696 32.1339 0.366117C32.3683 0.600537 32.5 0.918479 32.5 1.25V2.5H35C36.3261 2.5 37.5979 3.02678 38.5355 3.96447C39.4732 4.90215 40 6.17392 40 7.5V35C40 36.3261 39.4732 37.5979 38.5355 38.5355C37.5979 39.4732 36.3261 40 35 40H5C3.67392 40 2.40215 39.4732 1.46447 38.5355C0.526784 37.5979 0 36.3261 0 35V7.5C0 6.17392 0.526784 4.90215 1.46447 3.96447C2.40215 3.02678 3.67392 2.5 5 2.5H7.5V1.25C7.5 0.918479 7.6317 0.600537 7.86612 0.366117C8.10054 0.131696 8.41848 0 8.75 0V0ZM2.5 10V35C2.5 35.663 2.76339 36.2989 3.23223 36.7678C3.70107 37.2366 4.33696 37.5 5 37.5H35C35.663 37.5 36.2989 37.2366 36.7678 36.7678C37.2366 36.2989 37.5 35.663 37.5 35V10H2.5Z" fill="#633C01"/>
</svg>
