<svg width="84" height="80" viewBox="0 0 84 80" fill="none" xmlns="http://www.w3.org/2000/svg">
<path d="M55.0876 57.1637C70.8729 57.1637 83.6694 44.3672 83.6694 28.5819C83.6694 12.7965 70.8729 0 55.0876 0C39.3023 0 26.5057 12.7965 26.5057 28.5819C26.5057 44.3672 39.3023 57.1637 55.0876 57.1637Z" fill="#F8C037"/>
<path d="M51.0462 39.9756L52.02 30.3834L42.4279 28.7766L41.7948 20.9373C39.5063 21.2294 37.3639 21.9598 35.0268 23.0797C28.8429 26.0499 25.8241 21.5703 20.1272 20.7912C14.9172 20.0609 8.44124 21.5703 4.93545 25.7091C0.747993 30.6269 1.13753 39.294 2.40351 45.2343C3.32865 49.6652 5.76322 53.3658 7.27265 57.6019C7.46742 58.1375 7.61349 58.6731 7.75957 59.2087C9.46376 65.8795 12.2879 77.9549 16.1832 78.4905C20.0785 79.0261 20.1759 72.0633 21.8801 64.8083C23.5843 57.5532 30.6445 58.2349 30.6445 58.2349C30.6445 58.2349 37.7048 57.5532 39.409 64.8083C41.1132 72.0633 41.2106 79.0261 45.1059 78.4905C49.0012 77.9549 51.8253 65.8795 53.5295 59.2087C54.4546 55.6056 56.5484 52.4893 57.8143 49.0322C58.496 47.0846 59.0803 44.8935 59.4699 42.5563L51.0462 39.9756Z" fill="white"/>
<path d="M44.5703 79.9513C40.675 79.9513 39.7985 75.2769 38.8247 69.8722C38.5326 68.3141 38.2404 66.7559 37.8509 65.1491C36.731 60.2313 32.6896 59.6957 30.9854 59.6957C30.7906 59.6957 30.6446 59.6957 30.6446 59.6957C30.5472 59.6957 30.4498 59.6957 30.3524 59.6957C30.3524 59.6957 30.2063 59.6957 30.0116 59.6957C28.3074 59.6957 24.3147 60.2313 23.1461 65.1491C22.7565 66.7559 22.4644 68.3628 22.1722 69.9209C21.1984 75.3256 20.322 80 16.4267 80C16.2319 80 16.0371 80 15.8423 79.9513C11.5088 79.367 9.07425 70.8947 6.49361 60.6695L6.20146 59.5983C6.10407 59.1114 5.90931 58.6245 5.76324 58.0889C5.22763 56.5307 4.49726 54.9726 3.81558 53.4632C2.64699 50.9799 1.47839 48.3993 0.894094 45.5265C0.0176487 41.339 -1.49179 30.8704 3.76688 24.7353C6.78575 21.2295 11.8984 19.1357 17.4979 19.1357C18.4717 19.1357 19.3968 19.1844 20.322 19.3305C22.5618 19.6227 24.4121 20.4504 26.0189 21.1808C27.7718 21.9598 29.2812 22.6415 30.9854 22.6415C32.0566 22.6415 33.1765 22.3494 34.3938 21.7651C37.0231 20.4991 39.3116 19.7687 41.6488 19.4766C42.0383 19.4279 42.4279 19.5253 42.7687 19.8174C43.0608 20.0609 43.2556 20.4504 43.3043 20.8399L43.8399 27.5594L52.3122 28.9714C53.0913 29.1175 53.5782 29.7992 53.5295 30.5782L52.6531 38.9531L59.762 41.1443C60.4437 41.339 60.8819 42.0694 60.7845 42.7511C60.4437 45.0883 59.8107 47.4254 59.0803 49.4705C58.5447 50.9799 57.8143 52.4407 57.1327 53.8527C56.2075 55.7517 55.3311 57.602 54.8442 59.5009L54.552 60.5721C51.9714 70.7486 49.5368 79.2696 45.2033 79.8539C44.9598 79.9513 44.765 79.9513 44.5703 79.9513ZM31.0341 56.7255C34.8807 56.7255 39.409 58.7705 40.7237 64.4674C41.1132 66.1716 41.4054 67.7785 41.6975 69.3366C42.3792 73.1345 43.1095 77.0298 44.5703 77.0298C44.619 77.0298 44.7164 77.0298 44.7651 77.0298C45.0085 76.9811 46.4206 76.5429 48.4169 71.2356C49.7316 67.6811 50.8028 63.3962 51.6792 59.9391L51.9714 58.8679C52.5557 56.6281 53.5295 54.6318 54.4546 52.6354C55.1363 51.2234 55.7693 49.9087 56.2562 48.5454C56.7918 46.9872 57.2787 45.283 57.6196 43.5788L50.608 41.3877C49.9263 41.1929 49.5368 40.56 49.5855 39.8296L50.4132 31.6007L42.1844 30.1887C41.5027 30.0913 41.0158 29.507 40.9671 28.874L40.4802 22.5928C38.9708 22.9337 37.4126 23.4693 35.6598 24.3457C34.0529 25.1248 32.4948 25.5143 30.9854 25.5143C28.6969 25.5143 26.7492 24.6379 24.8503 23.8101C23.3408 23.1284 21.734 22.4467 19.9324 22.1546C19.1534 22.0572 18.3256 22.0085 17.5465 22.0085C12.8722 22.0085 8.48996 23.7614 6.05539 26.5855C1.52709 31.8442 3.23128 41.9233 3.81558 44.8448C4.35118 47.4254 5.4224 49.7139 6.5423 52.1485C7.27267 53.7066 8.00303 55.3135 8.58733 57.0177C8.7821 57.6506 8.97687 58.1863 9.12294 58.7705L9.41509 59.8418C10.2915 63.2988 11.3627 67.5837 12.6774 71.1382C14.6738 76.4455 16.0371 76.8838 16.3293 76.9325C16.378 76.9325 16.4753 76.9325 16.524 76.9325C17.9848 76.9325 18.7152 73.0371 19.3968 69.2392C19.689 67.6811 19.9811 66.0256 20.3707 64.37C21.6853 58.6732 26.2623 56.6281 30.0602 56.6281C30.255 56.6281 30.4498 56.6281 30.5472 56.6281C30.6445 56.7255 30.8393 56.7255 31.0341 56.7255Z" fill="#393A3A"/>
<path d="M7.85695 39.9269C7.12658 39.9269 6.49359 39.3427 6.39621 38.6123C6.00668 34.3761 6.78575 31.0651 8.73341 28.8253C10.9245 26.2934 13.846 26.1473 13.9434 26.1473C14.7711 26.0986 15.4528 26.7316 15.4528 27.5593C15.5015 28.3384 14.8685 29.0201 14.0895 29.0688C13.9921 29.0688 12.2392 29.2148 10.8758 30.8217C9.51247 32.4285 8.97685 34.9604 9.269 38.3688C9.36638 39.1479 8.7334 39.8783 7.95434 39.9756C7.95434 39.927 7.90564 39.9269 7.85695 39.9269Z" fill="#393A3A"/>
<path d="M63.9008 21.1807C63.5112 21.1807 63.073 21.0347 62.8295 20.6938C62.2939 20.1095 62.3426 19.1844 62.9756 18.6488L67.8447 14.3152C68.429 13.7796 69.3542 13.8283 69.8898 14.4613C70.4254 15.0456 70.3767 15.9708 69.7437 16.5064L64.8746 20.8399C64.5824 21.0834 64.2416 21.1807 63.9008 21.1807Z" fill="#393A3A"/>
<path d="M55.0877 15.776C54.893 15.776 54.6982 15.7273 54.5034 15.63C53.7731 15.2891 53.4322 14.4614 53.7731 13.731L56.4024 7.74195C56.7432 7.01158 57.571 6.67074 58.3013 7.01158C59.0317 7.35242 59.3726 8.18018 59.0317 8.91055L56.4024 14.8996C56.2076 15.4352 55.672 15.776 55.0877 15.776Z" fill="#393A3A"/>
<path d="M44.765 16.0195C43.986 16.0195 43.3043 15.3865 43.3043 14.6074L43.1582 8.0828C43.1582 7.25505 43.7912 6.62206 44.5702 6.57336C44.5702 6.57336 44.5703 6.57336 44.6189 6.57336C45.398 6.57336 46.0797 7.20635 46.0797 7.98541L46.2258 14.5101C46.2258 15.3378 45.5928 16.0195 44.765 16.0195Z" fill="#393A3A"/>
<path d="M67.5039 32.1363C66.8709 32.1363 66.2866 31.7468 66.0918 31.1138C65.8484 30.3347 66.2866 29.507 67.0657 29.3122L73.2982 27.4132C74.0772 27.1698 74.905 27.608 75.0997 28.3871C75.3432 29.1661 74.905 29.9939 74.1259 30.1886L67.8934 32.0876C67.796 32.1363 67.65 32.1363 67.5039 32.1363Z" fill="#393A3A"/>
<path d="M72.8112 43.9196C72.7625 43.9196 72.6651 43.9196 72.6165 43.9196L66.1405 42.9945C65.3614 42.8971 64.7771 42.1667 64.8745 41.339C64.9719 40.5599 65.7023 39.9756 66.53 40.073L73.006 40.9981C73.785 41.0955 74.3693 41.8259 74.2719 42.6536C74.1259 43.4327 73.5416 43.9196 72.8112 43.9196Z" fill="#393A3A"/>
</svg>
