<svg width="655" height="755" viewBox="0 0 655 755" fill="none" xmlns="http://www.w3.org/2000/svg">
<rect x="25.9998" y="36" width="600" height="719" rx="10" fill="#E9EDFF"/>
<path d="M164.486 561.526C157.655 550.348 137.63 550.079 129.181 553.356C111.476 560.215 116.355 574.419 122.186 582.953C131.667 596.824 145.186 590.513 151.037 586.22C161.932 578.234 168.151 567.523 164.486 561.526ZM76.6872 465.091C67.8443 463.124 48.088 466.42 43.0219 478.497C40.2986 484.98 48.062 494.632 60.0338 500.877C66.4676 504.239 80.785 508.437 88.0667 493.283C92.5386 483.968 95.2239 469.189 76.6872 465.091ZM83.7688 345.605C84.4477 352.822 82.9262 367.642 66.1232 368.643C55.7965 369.262 41.0775 366.145 44.2793 347.468C45.8126 338.552 56.3303 321.535 69.4501 321.421C76.4868 321.356 82.5013 332.179 83.7688 345.605Z" fill="#1ED760"/>
<path d="M157.482 607.679C145.304 602.805 129.094 614.547 124.279 622.207C114.193 638.268 126.615 646.74 136.393 650.097C152.308 655.56 159.367 642.429 161.493 635.499C165.447 622.596 164.011 610.298 157.482 607.679ZM81.702 600.228C72.7016 599.167 53.3749 604.422 49.5443 616.952C47.492 623.669 56.19 632.494 68.7314 637.506C75.468 640.205 90.1326 642.943 95.8569 627.144C99.3763 617.428 100.557 602.454 81.702 600.228ZM89.4824 531.281C81.1204 527.805 61.0963 527.585 53.9817 538.585C50.1651 544.497 56.1059 555.361 66.7912 563.606C72.5403 568.04 85.8925 574.681 95.7207 561.041C101.766 552.652 107.003 538.57 89.4824 531.281ZM157.073 483.617C148.462 473.738 128.676 476.829 120.89 481.469C104.59 491.189 111.785 504.379 118.965 511.811C130.64 523.902 142.908 515.418 147.96 510.211C157.365 500.516 161.696 488.912 157.073 483.617ZM94.1959 430.56C108.422 439.525 118.315 428.37 121.976 422.107C128.795 410.457 130.233 398.161 124.479 394.119C113.754 386.573 95.2768 394.279 88.8226 400.638C75.3088 413.958 85.4488 425.05 94.1959 430.56ZM30.9775 424.227C18.2712 419.643 9.27933 411.118 11.1017 404.336C14.4982 391.684 33.632 385.771 42.662 386.528C61.5823 388.101 60.9153 403.111 57.7305 412.938C52.5545 428.928 37.8022 426.686 30.9775 424.227Z" fill="#00A019"/>
<path d="M150.194 488.524C139.22 491.619 129.713 496.053 122.509 501.123L138.098 504.831C138.694 504.972 139.069 505.574 138.922 506.171C138.816 506.627 138.434 506.952 138.002 507.014C137.864 507.034 137.722 507.03 137.583 506.995L120.167 502.852C112.076 509.165 107.527 516.284 108.02 522.978C110.493 542.595 111.144 563.051 109.969 584.273C113.445 578.631 120.059 573.64 128.924 569.85L133.549 557.432C133.766 556.855 134.404 556.567 134.98 556.778C135.563 556.995 135.851 557.633 135.64 558.209L131.722 568.73C138.895 565.999 147.332 564.004 156.648 563.005C157.258 562.941 157.811 563.376 157.875 563.992C157.938 564.602 157.503 565.148 156.881 565.214C147.849 566.185 139.597 568.146 132.593 570.822L144.855 576.83C145.409 577.099 145.634 577.765 145.364 578.319C145.199 578.661 144.875 578.88 144.521 578.931C144.305 578.962 144.086 578.932 143.875 578.828L129.827 571.95C117.704 577.153 109.948 584.594 109.474 592.61C109.464 592.715 109.434 592.805 109.399 592.902C109.285 594.401 109.165 595.908 109.026 597.41C106.433 626.514 117.466 647.501 127.639 660.31C126.604 654.657 127.938 647.848 131.332 640.576L128.113 626.532C127.978 625.938 128.351 625.339 128.95 625.204C129.555 625.061 130.149 625.441 130.283 626.035L132.902 637.446C137.122 629.614 143.629 621.366 152.079 613.549C152.533 613.128 153.241 613.155 153.656 613.61C154.076 614.058 154.048 614.76 153.594 615.181C145.047 623.086 138.509 631.54 134.42 639.475L150.808 638.443C151.428 638.402 151.955 638.872 151.994 639.485C152.028 640.062 151.605 640.57 151.035 640.652C151.011 640.656 150.981 640.66 150.951 640.664L133.293 641.77C128.956 651.169 128.237 659.655 131.944 665.351C142.232 676.576 152.172 682.078 152.28 682.143C152.819 682.439 153.014 683.115 152.723 683.647C152.544 683.973 152.235 684.171 151.899 684.219C151.671 684.252 151.432 684.213 151.207 684.093C150.701 683.816 138.611 677.134 126.994 663.063C121.122 655.944 114.806 646.132 110.745 633.649C110.676 633.548 110.611 633.441 110.576 633.324C108.447 626.719 101.17 621.887 90.8174 619.39L78.5712 629.39C78.4068 629.524 78.2216 629.6 78.0235 629.628C77.6514 629.682 77.2584 629.549 77.0042 629.23C76.6116 628.76 76.6819 628.057 77.1651 627.669L88.0294 618.793C79.4854 617.158 69.168 616.991 58.0698 618.59C57.9857 618.603 57.9034 618.584 57.8297 618.625C57.2174 618.713 56.6543 618.292 56.5669 617.686C56.4795 617.08 56.8999 616.51 57.5061 616.423C57.5902 616.411 57.6802 616.398 57.7582 616.387C69.0545 614.758 79.4628 614.876 88.1508 616.491L81.7854 606.931C81.4426 606.423 81.5815 605.729 82.0965 605.391C82.6046 605.048 83.2986 605.187 83.6355 605.696L91.2734 617.156C98.7808 618.953 104.771 621.956 108.631 625.994C106.69 617.464 105.859 607.872 106.811 597.215C107.594 588.451 108.07 579.81 108.24 571.3C108.214 571.206 108.187 571.105 108.185 571.002C107.958 564.246 102.545 557.765 93.6889 552.603L78.966 559.32C78.8692 559.371 78.7689 559.398 78.6669 559.412C78.1867 559.482 77.7035 559.233 77.4902 558.773C77.2383 558.215 77.4801 557.555 78.0432 557.296L91.2653 551.261C83.3296 547.13 73.0685 543.995 61.4886 542.466C60.8761 542.383 60.4466 541.826 60.5299 541.213C60.608 540.608 61.1709 540.177 61.7825 540.255C73.4756 541.804 83.7599 544.886 91.8267 548.993L87.9498 537.782C87.7492 537.198 88.0563 536.565 88.6401 536.365C89.2239 536.164 89.8563 536.471 90.0569 537.055L94.7232 550.554C101.095 554.249 105.789 558.633 108.307 563.393C108.279 549.893 107.472 536.732 105.892 523.94C105.868 523.864 105.845 523.787 105.838 523.696C105.821 523.533 105.815 523.363 105.803 523.199C104.853 515.714 103.64 508.365 102.163 501.134C102.129 501.065 102.105 500.989 102.088 500.912C100.65 494.208 94.0315 488.716 84.179 485.186L71.1175 493.441C70.983 493.527 70.8313 493.58 70.6812 493.602C70.2611 493.662 69.8243 493.48 69.5845 493.092C69.2528 492.576 69.4106 491.885 69.9274 491.56L81.4394 484.288C72.9877 481.72 62.5343 480.482 51.09 480.998C50.4751 481.025 49.953 480.549 49.9265 479.94C49.8992 479.325 50.3754 478.803 50.9902 478.776C62.4903 478.264 72.9256 479.419 81.4767 481.911L75.4074 472.493C75.0757 471.977 75.2223 471.294 75.7442 470.962C76.2592 470.624 76.9489 470.776 77.2806 471.292L84.8254 482.997C91.5668 485.389 96.8831 488.691 100.305 492.707C96.5714 476.923 91.5446 461.773 85.209 447.319C83.893 444.311 82.4929 441.272 81.1376 438.33C78.2136 431.987 75.2621 425.581 72.6056 418.501C70.1263 411.8 62.2535 407.17 51.2888 405.148L38.7233 415.61C38.5588 415.744 38.3685 415.827 38.1704 415.855C37.7983 415.909 37.4113 415.775 37.1528 415.469C36.7603 414.999 36.8245 414.297 37.3009 413.904L48.3783 404.679C39.9781 403.531 30.0309 403.807 19.4382 405.726C18.8286 405.832 18.2509 405.437 18.1446 404.828C18.0332 404.225 18.4339 403.647 19.0426 403.534C29.8445 401.579 39.8903 401.264 48.4405 402.391L41.2084 393.109C40.8322 392.624 40.9153 391.926 41.4003 391.55C41.8852 391.173 42.5903 391.262 42.9665 391.747L51.6487 402.884C59.4463 404.315 65.7704 407.043 69.9777 410.897C65.7541 397.536 62.7843 381.44 62.805 359.269L52.8755 347.766C52.4769 347.297 52.5292 346.597 52.9978 346.192C53.4613 345.795 54.1672 345.846 54.5649 346.31L62.8394 355.894C62.9224 349.67 63.2398 342.988 63.8233 335.772C63.8757 335.158 64.4102 334.701 65.0244 334.754C65.6376 334.8 66.0945 335.335 66.0482 335.948C65.452 343.288 65.1398 350.048 65.068 356.351L74.2572 348.054C74.7121 347.639 75.4163 347.679 75.8302 348.127C76.245 348.582 76.2056 349.286 75.7507 349.701L65.0376 359.37C65.0249 398.045 74.2191 418.005 83.1604 437.401C83.2309 437.55 83.3031 437.711 83.3737 437.86C83.9101 431.423 87.594 424.294 93.8406 417.303L94.0659 402.884C94.0754 402.27 94.5868 401.78 95.1948 401.79C95.8149 401.799 96.2984 402.305 96.2949 402.918L96.1034 414.893C101.768 409.132 109.133 403.531 117.874 398.582C118.406 398.279 119.089 398.468 119.393 399C119.697 399.539 119.506 400.216 118.974 400.519C110.432 405.353 103.192 410.894 97.6441 416.571L113.403 416.192C114.014 416.178 114.526 416.668 114.54 417.278C114.555 417.846 114.139 418.323 113.587 418.402C113.545 418.408 113.497 418.415 113.454 418.415L95.5218 418.85C87.3791 427.988 83.752 437.297 86.3726 444.468C86.6684 445.118 86.9651 445.774 87.2558 446.43C96.7059 467.995 103.282 491.089 106.979 515.542C108.906 510.504 113 505.539 118.812 501.019L121.013 487.002C121.109 486.394 121.674 485.981 122.283 486.077C122.89 486.167 123.309 486.738 123.213 487.346L121.359 499.138C128.726 494.008 138.37 489.548 149.592 486.387C150.18 486.216 150.8 486.562 150.965 487.151C151.136 487.745 150.789 488.358 150.194 488.524Z" fill="black"/>
<path d="M117.44 683.456L143.568 366.699L495.584 366.708L526.491 683.454H117.438" fill="white"/>
<path d="M144.179 372.645L144.577 367.816H494.372L494.06 371.718L488.346 440.91H138.548L143.659 379.026L143.69 378.588L144.167 372.864L144.179 372.645ZM496.619 377.446L496.567 388.231L500.763 431.237L500.919 432.801L509.31 518.815L509.414 519.95L516.296 590.34L516.42 591.66L524.8 677.594L524.956 679.125L525.268 682.36H470.647L470.679 681.964L470.772 680.872L489.957 448.219H488.854L487.74 448.216L468.565 680.723L468.47 681.826L468.43 682.358H118.632L138.371 443.116L490.385 443.114L494.32 395.375L494.883 388.622L495.496 381.068L495.663 379.028L496.174 372.866L496.683 366.756L496.619 377.446ZM581.107 682.362H527.486L496.683 366.706L496.775 365.61H142.544L142.452 366.72V366.729L136.154 443.119L116.419 682.36H62.8154C62.205 682.36 61.71 682.848 61.71 683.463C61.71 684.076 62.205 684.566 62.8154 684.566H581.109C581.715 684.566 582.215 684.076 582.215 683.463C582.215 682.848 581.715 682.36 581.109 682.36" fill="black"/>
<path d="M454.663 398.673H408.056V400.879H454.663V398.673ZM413.981 407.616H428.752H429.887H454.048V405.407H407.444V407.616H412.846H413.981ZM455.89 385.202H409.275V387.409H455.89V385.202ZM455.278 391.939H408.66V394.145H455.278V391.939ZM496.177 372.866L495.668 379.029L495.501 381.068L494.886 388.622L494.325 395.375L490.389 443.114H140.779L140.463 447.02L150.299 447.052L150.843 447.057H151.408L151.953 447.061H152.518L153.063 447.066L166.93 447.111H166.939L182.566 447.167C182.648 447.136 182.743 447.111 182.835 447.111C182.939 447.111 183.034 447.136 183.118 447.167L198.357 447.222L199.118 447.224L214.181 447.274L215.108 447.276L230.005 447.33L231.085 447.335L245.858 447.382L247.034 447.387L261.712 447.436L262.973 447.443L278.911 447.497L293.453 447.545L294.848 447.554L309.318 447.601L310.785 447.606L325.214 447.656L326.702 447.658L341.1 447.708L342.619 447.717L356.985 447.764L358.527 447.769L372.881 447.818L374.443 447.825L388.778 447.875L390.36 447.877L404.674 447.927V447.907H406.266C406.266 447.916 406.257 447.922 406.257 447.932L420.591 447.981L422.142 447.988L436.508 448.038L438.038 448.042L452.425 448.09L453.924 448.099L468.342 448.146L469.809 448.151L484.247 448.201L485.705 448.207L487.744 448.212L488.859 448.216L489.962 448.221L470.776 680.875L470.684 681.957L470.652 682.353H495.012L496.572 388.225L496.626 377.437L496.687 366.751L496.177 372.866ZM143.872 408.17C143.872 408.021 143.817 407.881 143.741 407.763L143.668 408.69C143.79 408.552 143.872 408.373 143.872 408.17ZM159.266 408.905C161.235 415.682 167.479 420.635 174.892 420.635C182.304 420.635 188.55 415.682 190.517 408.909L190.881 407.394C191.057 406.411 191.172 405.398 191.172 404.361C191.172 395.375 183.884 388.089 174.892 388.089C165.897 388.089 158.608 395.375 158.608 404.361C158.608 405.398 158.717 406.411 158.9 407.394L159.266 408.905ZM270.3 440.754C267.649 440.754 272.768 440.754 270.3 440.754V440.754ZM269.497 424.066C269.497 421.578 269.497 426.699 269.497 424.066V424.066ZM269.497 408.17C269.497 408.588 269.83 408.927 270.237 408.954C270.56 409.21 270.976 409.37 271.424 409.37H352.247C353.234 409.37 354.057 408.613 354.141 407.63L354.964 397.656C355.057 396.55 354.184 395.599 353.069 395.599H272.246C271.256 395.599 270.433 396.354 270.352 397.342L269.518 407.313C269.509 407.503 269.529 407.684 269.561 407.858C269.518 407.955 269.497 408.061 269.497 408.17ZM395.833 428.728H464.395C466.465 428.728 468.204 427.17 468.444 425.111L469.379 416.851L469.526 415.487L473.462 380.771C473.731 378.357 471.848 376.239 469.411 376.239H400.852C398.779 376.239 397.031 377.797 396.801 379.856L391.784 424.198C391.502 426.61 393.399 428.728 395.833 428.728ZM477.02 440.754C474.546 440.754 479.674 440.754 477.02 440.754V440.754ZM461.126 440.754C458.629 440.754 463.76 440.754 461.126 440.754V440.754ZM445.218 440.754C442.594 440.754 447.817 440.754 445.218 440.754V440.754ZM429.313 440.754C426.839 440.754 431.962 440.754 429.313 440.754V440.754ZM413.416 440.754C410.944 440.754 416.044 440.754 413.416 440.754V440.754ZM397.508 440.754C394.873 440.754 400.007 440.754 397.508 440.754V440.754ZM349.81 440.754C347.315 440.754 352.444 440.754 349.81 440.754V440.754ZM149.699 440.908H140.964L144.966 392.414L145.043 391.484L145.472 386.251L145.531 385.544L145.981 380.089L146.021 379.6L146.673 371.715H494.065L488.35 440.91L149.699 440.908ZM430.135 418.874H406.212V421.08H430.135V418.874ZM453.442 412.142H406.826V414.35H453.442V412.142ZM494.999 684.636V684.564H493.864L494.999 684.636ZM142.454 366.715L142.547 365.605H142.337L142.454 366.722V366.715Z" fill="#3B80E0"/>
<path d="M219.951 505.111C219.039 505.111 218.391 504.631 218.007 503.671C217.647 502.711 217.467 501.175 217.467 499.063C217.467 495.943 217.911 492.979 218.799 490.171C219.015 489.475 219.363 488.971 219.843 488.659C220.347 488.323 221.043 488.155 221.931 488.155C222.411 488.155 222.747 488.215 222.939 488.335C223.131 488.455 223.227 488.683 223.227 489.019C223.227 489.403 223.047 490.267 222.687 491.611C222.447 492.571 222.255 493.411 222.111 494.131C221.967 494.827 221.847 495.703 221.751 496.759C222.399 494.887 223.167 493.303 224.055 492.007C224.967 490.711 225.891 489.751 226.827 489.127C227.787 488.479 228.687 488.155 229.527 488.155C230.367 488.155 230.955 488.347 231.291 488.731C231.651 489.115 231.831 489.703 231.831 490.495C231.831 491.263 231.603 492.655 231.147 494.671C230.955 495.535 230.823 496.183 230.751 496.615C231.951 493.663 233.283 491.515 234.747 490.171C236.211 488.827 237.579 488.155 238.851 488.155C240.411 488.155 241.191 488.935 241.191 490.495C241.191 491.431 240.927 493.123 240.399 495.571C239.943 497.659 239.715 499.039 239.715 499.711C239.715 500.671 240.063 501.151 240.759 501.151C241.239 501.151 241.803 500.863 242.451 500.287C243.123 499.687 244.011 498.727 245.115 497.407C245.403 497.071 245.727 496.903 246.087 496.903C246.399 496.903 246.639 497.047 246.807 497.335C246.999 497.623 247.095 498.019 247.095 498.523C247.095 499.483 246.867 500.227 246.411 500.755C245.379 502.027 244.263 503.071 243.063 503.887C241.887 504.703 240.543 505.111 239.031 505.111C237.807 505.111 236.883 504.763 236.259 504.067C235.635 503.347 235.323 502.315 235.323 500.971C235.323 500.299 235.491 499.099 235.827 497.371C236.139 495.859 236.295 494.815 236.295 494.239C236.295 493.855 236.163 493.663 235.899 493.663C235.587 493.663 235.143 494.071 234.567 494.887C233.991 495.679 233.415 496.735 232.839 498.055C232.263 499.375 231.795 500.767 231.435 502.231C231.171 503.383 230.859 504.151 230.499 504.535C230.163 504.919 229.611 505.111 228.843 505.111C228.051 505.111 227.451 504.739 227.043 503.995C226.659 503.227 226.467 502.303 226.467 501.223C226.467 500.311 226.587 498.991 226.827 497.263C227.019 495.727 227.115 494.719 227.115 494.239C227.115 493.855 226.983 493.663 226.719 493.663C226.359 493.663 225.903 494.095 225.351 494.959C224.799 495.823 224.259 496.927 223.731 498.271C223.227 499.615 222.819 500.935 222.507 502.231C222.243 503.359 221.931 504.127 221.571 504.535C221.235 504.919 220.695 505.111 219.951 505.111ZM248.9 485.779C247.892 485.779 247.136 485.551 246.632 485.095C246.128 484.615 245.876 483.955 245.876 483.115C245.876 482.275 246.2 481.579 246.848 481.027C247.52 480.451 248.348 480.163 249.332 480.163C250.22 480.163 250.94 480.379 251.492 480.811C252.044 481.243 252.32 481.855 252.32 482.647C252.32 483.607 252.008 484.375 251.384 484.951C250.76 485.503 249.932 485.779 248.9 485.779ZM248.612 505.111C247.052 505.111 245.912 504.559 245.192 503.455C244.496 502.351 244.148 500.887 244.148 499.063C244.148 497.983 244.28 496.603 244.544 494.923C244.832 493.219 245.192 491.635 245.624 490.171C245.84 489.403 246.128 488.875 246.488 488.587C246.848 488.299 247.424 488.155 248.216 488.155C249.44 488.155 250.052 488.563 250.052 489.379C250.052 489.979 249.824 491.371 249.368 493.555C248.792 496.195 248.504 497.983 248.504 498.919C248.504 499.639 248.6 500.191 248.792 500.575C248.984 500.959 249.308 501.151 249.764 501.151C250.196 501.151 250.736 500.851 251.384 500.251C252.032 499.651 252.896 498.703 253.976 497.407C254.264 497.071 254.588 496.903 254.948 496.903C255.26 496.903 255.5 497.047 255.668 497.335C255.86 497.623 255.956 498.019 255.956 498.523C255.956 499.483 255.728 500.227 255.272 500.755C252.896 503.659 250.676 505.111 248.612 505.111ZM269.099 496.903C269.411 496.903 269.651 497.047 269.819 497.335C270.011 497.623 270.107 498.019 270.107 498.523C270.107 499.483 269.879 500.227 269.423 500.755C268.535 501.835 267.275 502.831 265.643 503.743C264.035 504.655 262.307 505.111 260.459 505.111C257.939 505.111 255.983 504.427 254.591 503.059C253.199 501.691 252.503 499.819 252.503 497.443C252.503 495.787 252.851 494.251 253.547 492.835C254.243 491.395 255.203 490.255 256.427 489.415C257.675 488.575 259.079 488.155 260.639 488.155C262.031 488.155 263.147 488.575 263.987 489.415C264.827 490.231 265.247 491.347 265.247 492.763C265.247 494.419 264.647 495.847 263.447 497.047C262.271 498.223 260.267 499.159 257.435 499.855C258.035 500.959 259.175 501.511 260.855 501.511C261.935 501.511 263.159 501.139 264.527 500.395C265.919 499.627 267.119 498.631 268.127 497.407C268.415 497.071 268.739 496.903 269.099 496.903ZM260.027 491.683C259.139 491.683 258.383 492.199 257.759 493.231C257.159 494.263 256.859 495.511 256.859 496.975V497.047C258.275 496.711 259.391 496.207 260.207 495.535C261.023 494.863 261.431 494.083 261.431 493.195C261.431 492.739 261.299 492.379 261.035 492.115C260.795 491.827 260.459 491.683 260.027 491.683ZM269.732 505.111C268.82 505.111 268.172 504.631 267.788 503.671C267.428 502.711 267.248 501.175 267.248 499.063C267.248 495.943 267.692 492.979 268.58 490.171C268.796 489.475 269.144 488.971 269.624 488.659C270.128 488.323 270.824 488.155 271.712 488.155C272.192 488.155 272.528 488.215 272.72 488.335C272.912 488.455 273.008 488.683 273.008 489.019C273.008 489.403 272.828 490.267 272.468 491.611C272.228 492.571 272.036 493.411 271.892 494.131C271.748 494.851 271.628 495.739 271.532 496.795C272.324 494.731 273.212 493.051 274.196 491.755C275.18 490.459 276.14 489.535 277.076 488.983C278.036 488.431 278.912 488.155 279.704 488.155C281.264 488.155 282.044 488.935 282.044 490.495C282.044 490.807 281.936 491.563 281.72 492.763C281.528 493.723 281.432 494.323 281.432 494.563C281.432 495.403 281.732 495.823 282.332 495.823C283.004 495.823 283.868 495.295 284.924 494.239C285.236 493.927 285.56 493.771 285.896 493.771C286.208 493.771 286.448 493.915 286.616 494.203C286.808 494.467 286.904 494.827 286.904 495.283C286.904 496.171 286.664 496.867 286.184 497.371C285.512 498.067 284.72 498.667 283.808 499.171C282.92 499.651 281.972 499.891 280.964 499.891C279.692 499.891 278.72 499.567 278.048 498.919C277.4 498.271 277.076 497.395 277.076 496.291C277.076 495.931 277.112 495.571 277.184 495.211C277.232 494.731 277.256 494.407 277.256 494.239C277.256 493.855 277.124 493.663 276.86 493.663C276.5 493.663 276.02 494.071 275.42 494.887C274.844 495.679 274.268 496.735 273.692 498.055C273.116 499.375 272.648 500.767 272.288 502.231C272.024 503.359 271.712 504.127 271.352 504.535C271.016 504.919 270.476 505.111 269.732 505.111ZM290.435 505.111C288.083 505.111 286.247 504.451 284.927 503.131C283.631 501.787 282.983 500.023 282.983 497.839C282.983 495.895 283.367 494.191 284.135 492.727C284.903 491.263 285.899 490.135 287.123 489.343C288.347 488.551 289.631 488.155 290.975 488.155C292.295 488.155 293.315 488.551 294.035 489.343C294.779 490.111 295.151 491.107 295.151 492.331C295.151 493.339 294.923 494.191 294.467 494.887C294.035 495.583 293.459 495.931 292.739 495.931C292.283 495.931 291.911 495.823 291.623 495.607C291.359 495.391 291.227 495.091 291.227 494.707C291.227 494.539 291.251 494.347 291.299 494.131C291.347 493.915 291.383 493.759 291.407 493.663C291.527 493.303 291.587 492.967 291.587 492.655C291.587 492.343 291.503 492.103 291.335 491.935C291.191 491.767 290.975 491.683 290.687 491.683C290.135 491.683 289.619 491.935 289.139 492.439C288.659 492.919 288.275 493.579 287.987 494.419C287.699 495.259 287.555 496.183 287.555 497.191C287.555 499.975 288.767 501.367 291.191 501.367C292.175 501.367 293.231 501.043 294.359 500.395C295.511 499.723 296.639 498.727 297.743 497.407C298.031 497.071 298.355 496.903 298.715 496.903C299.027 496.903 299.267 497.047 299.435 497.335C299.627 497.623 299.723 498.019 299.723 498.523C299.723 499.435 299.495 500.179 299.039 500.755C297.911 502.147 296.555 503.227 294.971 503.995C293.411 504.739 291.899 505.111 290.435 505.111ZM315.173 493.879C315.485 493.879 315.725 494.035 315.893 494.347C316.061 494.659 316.145 495.055 316.145 495.535C316.145 496.687 315.797 497.371 315.101 497.587C313.661 498.091 312.077 498.379 310.349 498.451C309.893 500.467 308.993 502.087 307.649 503.311C306.305 504.511 304.781 505.111 303.077 505.111C301.637 505.111 300.401 504.763 299.369 504.067C298.361 503.371 297.593 502.447 297.065 501.295C296.537 500.143 296.273 498.895 296.273 497.551C296.273 495.727 296.621 494.107 297.317 492.691C298.013 491.251 298.973 490.135 300.197 489.343C301.421 488.527 302.777 488.119 304.265 488.119C306.089 488.119 307.553 488.755 308.657 490.027C309.785 491.275 310.445 492.823 310.637 494.671C311.765 494.599 313.109 494.359 314.669 493.951C314.861 493.903 315.029 493.879 315.173 493.879ZM303.365 501.295C304.133 501.295 304.793 500.983 305.345 500.359C305.921 499.735 306.305 498.835 306.497 497.659C305.753 497.155 305.177 496.495 304.769 495.679C304.385 494.863 304.193 493.999 304.193 493.087C304.193 492.703 304.229 492.319 304.301 491.935H304.121C303.161 491.935 302.357 492.403 301.709 493.339C301.085 494.251 300.773 495.547 300.773 497.227C300.773 498.547 301.025 499.555 301.529 500.251C302.057 500.947 302.669 501.295 303.365 501.295ZM326.699 496.903C327.011 496.903 327.251 497.047 327.419 497.335C327.611 497.623 327.707 498.019 327.707 498.523C327.707 499.483 327.479 500.227 327.023 500.755C325.991 502.027 324.863 503.071 323.639 503.887C322.439 504.703 321.071 505.111 319.535 505.111C317.423 505.111 315.851 504.151 314.819 502.231C313.811 500.311 313.307 497.827 313.307 494.779C313.307 491.851 313.679 488.515 314.423 484.771C315.191 481.027 316.307 477.811 317.771 475.123C319.259 472.435 321.023 471.091 323.063 471.091C324.215 471.091 325.115 471.631 325.763 472.711C326.435 473.767 326.771 475.291 326.771 477.283C326.771 480.139 325.979 483.451 324.395 487.219C322.811 490.987 320.663 494.719 317.951 498.415C318.119 499.399 318.395 500.107 318.779 500.539C319.163 500.947 319.667 501.151 320.291 501.151C321.275 501.151 322.139 500.875 322.883 500.323C323.627 499.747 324.575 498.775 325.727 497.407C326.015 497.071 326.339 496.903 326.699 496.903ZM322.271 474.655C321.719 474.655 321.095 475.651 320.399 477.643C319.703 479.635 319.091 482.107 318.563 485.059C318.035 488.011 317.747 490.843 317.699 493.555C319.403 490.747 320.759 487.939 321.767 485.131C322.775 482.299 323.279 479.719 323.279 477.391C323.279 475.567 322.943 474.655 322.271 474.655ZM340.853 496.903C341.165 496.903 341.405 497.047 341.573 497.335C341.765 497.623 341.861 498.019 341.861 498.523C341.861 499.483 341.633 500.227 341.177 500.755C340.289 501.835 339.029 502.831 337.397 503.743C335.789 504.655 334.061 505.111 332.213 505.111C329.693 505.111 327.737 504.427 326.345 503.059C324.953 501.691 324.257 499.819 324.257 497.443C324.257 495.787 324.605 494.251 325.301 492.835C325.997 491.395 326.957 490.255 328.181 489.415C329.429 488.575 330.833 488.155 332.393 488.155C333.785 488.155 334.901 488.575 335.741 489.415C336.581 490.231 337.001 491.347 337.001 492.763C337.001 494.419 336.401 495.847 335.201 497.047C334.025 498.223 332.021 499.159 329.189 499.855C329.789 500.959 330.929 501.511 332.609 501.511C333.689 501.511 334.913 501.139 336.281 500.395C337.673 499.627 338.873 498.631 339.881 497.407C340.169 497.071 340.493 496.903 340.853 496.903ZM331.781 491.683C330.893 491.683 330.137 492.199 329.513 493.231C328.913 494.263 328.613 495.511 328.613 496.975V497.047C330.029 496.711 331.145 496.207 331.961 495.535C332.777 494.863 333.185 494.083 333.185 493.195C333.185 492.739 333.053 492.379 332.789 492.115C332.549 491.827 332.213 491.683 331.781 491.683ZM345.626 505.903C344.378 505.903 343.418 505.615 342.746 505.039C342.098 504.463 341.774 503.815 341.774 503.095C341.774 502.471 342.002 501.931 342.458 501.475C342.914 501.019 343.586 500.791 344.474 500.791C344.786 500.791 345.146 500.827 345.554 500.899C345.986 500.947 346.31 500.983 346.526 501.007C346.502 500.383 346.358 499.795 346.094 499.243C345.854 498.691 345.542 498.163 345.158 497.659C344.774 497.131 344.414 496.675 344.078 496.291C343.334 497.707 342.59 498.883 341.846 499.819C341.126 500.755 340.334 501.643 339.47 502.483C339.038 502.915 338.582 503.131 338.102 503.131C337.718 503.131 337.406 502.999 337.166 502.735C336.926 502.447 336.806 502.099 336.806 501.691C336.806 501.211 336.974 500.767 337.31 500.359L337.778 499.783C339.098 498.151 340.094 496.807 340.766 495.751C341.198 495.055 341.63 494.227 342.062 493.267C342.518 492.307 343.106 490.999 343.826 489.343C344.282 488.287 345.23 487.759 346.67 487.759C347.342 487.759 347.81 487.819 348.074 487.939C348.338 488.059 348.47 488.251 348.47 488.515C348.47 488.659 348.422 488.887 348.326 489.199C348.23 489.511 348.098 489.823 347.93 490.135C347.498 490.999 347.282 491.731 347.282 492.331C347.282 492.691 347.402 493.087 347.642 493.519C347.906 493.951 348.302 494.491 348.83 495.139C349.598 496.147 350.174 497.011 350.558 497.731C350.966 498.427 351.17 499.195 351.17 500.035C351.17 501.043 350.93 502.003 350.45 502.915C349.994 503.803 349.346 504.523 348.506 505.075C347.666 505.627 346.706 505.903 345.626 505.903ZM199.645 622.903C199.957 622.903 200.197 623.047 200.365 623.335C200.557 623.623 200.653 624.019 200.653 624.523C200.653 625.483 200.425 626.227 199.969 626.755C198.985 627.955 197.905 628.987 196.729 629.851C195.553 630.691 194.389 631.111 193.237 631.111C191.413 631.111 190.021 630.043 189.061 627.907C188.053 629.179 187.165 630.031 186.397 630.463C185.653 630.895 184.777 631.111 183.769 631.111C182.305 631.111 181.093 630.571 180.133 629.491C179.197 628.387 178.729 626.959 178.729 625.207C178.729 623.287 179.137 621.511 179.953 619.879C180.769 618.223 181.885 616.879 183.301 615.847C184.741 614.791 186.349 614.167 188.125 613.975C188.581 609.319 189.445 605.347 190.717 602.059C192.013 598.747 193.705 597.091 195.793 597.091C196.825 597.091 197.677 597.559 198.349 598.495C199.045 599.431 199.393 600.847 199.393 602.743C199.393 605.431 198.733 608.575 197.413 612.175C196.093 615.775 194.329 619.471 192.121 623.263C192.217 624.655 192.421 625.651 192.733 626.251C193.069 626.851 193.489 627.151 193.993 627.151C194.641 627.151 195.301 626.863 195.973 626.287C196.645 625.711 197.545 624.751 198.673 623.407C198.961 623.071 199.285 622.903 199.645 622.903ZM195.397 600.619C194.941 600.619 194.485 601.435 194.029 603.067C193.573 604.675 193.177 606.787 192.841 609.403C192.529 612.019 192.301 614.755 192.157 617.611C194.845 611.755 196.189 607.051 196.189 603.499C196.189 602.587 196.105 601.879 195.937 601.375C195.793 600.871 195.613 600.619 195.397 600.619ZM185.029 627.475C185.485 627.475 185.941 627.295 186.397 626.935C186.853 626.551 187.429 625.855 188.125 624.847C187.885 623.551 187.765 622.099 187.765 620.491C187.765 619.915 187.789 618.979 187.837 617.683C186.517 618.091 185.413 618.979 184.525 620.347C183.661 621.691 183.229 623.191 183.229 624.847C183.229 626.599 183.829 627.475 185.029 627.475ZM210.613 623.983C210.925 623.983 211.165 624.127 211.333 624.415C211.525 624.703 211.621 625.099 211.621 625.603C211.621 626.467 211.417 627.211 211.009 627.835C210.337 628.867 209.449 629.671 208.345 630.247C207.265 630.823 205.969 631.111 204.457 631.111C202.153 631.111 200.365 630.427 199.093 629.059C197.821 627.667 197.185 625.795 197.185 623.443C197.185 621.787 197.533 620.251 198.229 618.835C198.925 617.395 199.885 616.255 201.109 615.415C202.357 614.575 203.761 614.155 205.321 614.155C206.713 614.155 207.829 614.575 208.669 615.415C209.509 616.231 209.929 617.347 209.929 618.763C209.929 620.419 209.329 621.847 208.129 623.047C206.953 624.223 204.937 625.159 202.081 625.855C202.657 626.959 203.629 627.511 204.997 627.511C205.981 627.511 206.785 627.283 207.409 626.827C208.057 626.371 208.801 625.603 209.641 624.523C209.929 624.163 210.253 623.983 210.613 623.983ZM204.709 617.683C203.821 617.683 203.065 618.199 202.441 619.231C201.841 620.263 201.541 621.511 201.541 622.975V623.047C202.957 622.711 204.073 622.207 204.889 621.535C205.705 620.863 206.113 620.083 206.113 619.195C206.113 618.739 205.981 618.379 205.717 618.115C205.477 617.827 205.141 617.683 204.709 617.683ZM232.097 631.219C228.905 631.219 226.349 630.619 224.429 629.419C222.509 628.195 221.549 626.335 221.549 623.839C221.549 622.519 221.777 621.511 222.233 620.815C222.689 620.119 223.361 619.771 224.249 619.771C224.897 619.771 225.425 619.939 225.833 620.275C226.241 620.611 226.445 621.043 226.445 621.571C226.445 622.051 226.409 622.471 226.337 622.831C226.337 622.927 226.313 623.095 226.265 623.335C226.241 623.575 226.229 623.827 226.229 624.091C226.229 625.171 226.769 625.975 227.849 626.503C228.953 627.031 230.489 627.295 232.457 627.295C234.497 627.295 236.093 626.935 237.245 626.215C238.397 625.471 238.973 624.439 238.973 623.119C238.973 622.303 238.709 621.607 238.181 621.031C237.653 620.431 236.993 619.939 236.201 619.555C235.409 619.147 234.293 618.655 232.853 618.079C231.005 617.359 229.493 616.675 228.317 616.027C227.165 615.379 226.169 614.503 225.329 613.399C224.513 612.271 224.105 610.879 224.105 609.223C224.105 607.495 224.561 605.959 225.473 604.615C226.409 603.271 227.741 602.227 229.469 601.483C231.221 600.739 233.273 600.367 235.625 600.367C237.377 600.367 238.985 600.631 240.449 601.159C241.913 601.663 243.077 602.443 243.941 603.499C244.829 604.555 245.273 605.851 245.273 607.387C245.273 608.899 245.045 610.039 244.589 610.807C244.133 611.575 243.461 611.959 242.573 611.959C241.949 611.959 241.421 611.767 240.989 611.383C240.581 610.999 240.377 610.543 240.377 610.015C240.377 609.559 240.413 609.139 240.485 608.755C240.557 608.035 240.593 607.579 240.593 607.387C240.593 606.379 240.101 605.611 239.117 605.083C238.133 604.555 236.909 604.291 235.445 604.291C233.381 604.291 231.797 604.675 230.693 605.443C229.613 606.187 229.073 607.243 229.073 608.611C229.073 609.523 229.349 610.303 229.901 610.951C230.477 611.599 231.185 612.139 232.025 612.571C232.865 613.003 234.041 613.519 235.553 614.119C237.377 614.863 238.841 615.535 239.945 616.135C241.049 616.735 241.985 617.551 242.753 618.583C243.545 619.615 243.941 620.887 243.941 622.399C243.941 625.231 242.861 627.415 240.701 628.951C238.565 630.463 235.697 631.219 232.097 631.219ZM263.07 622.903C263.382 622.903 263.622 623.047 263.79 623.335C263.982 623.623 264.078 624.019 264.078 624.523C264.078 625.483 263.85 626.227 263.394 626.755C262.506 627.835 261.246 628.831 259.614 629.743C258.006 630.655 256.278 631.111 254.43 631.111C251.91 631.111 249.954 630.427 248.562 629.059C247.17 627.691 246.474 625.819 246.474 623.443C246.474 621.787 246.822 620.251 247.518 618.835C248.214 617.395 249.174 616.255 250.398 615.415C251.646 614.575 253.05 614.155 254.61 614.155C256.002 614.155 257.118 614.575 257.958 615.415C258.798 616.231 259.218 617.347 259.218 618.763C259.218 620.419 258.618 621.847 257.418 623.047C256.242 624.223 254.238 625.159 251.406 625.855C252.006 626.959 253.146 627.511 254.826 627.511C255.906 627.511 257.13 627.139 258.498 626.395C259.89 625.627 261.09 624.631 262.098 623.407C262.386 623.071 262.71 622.903 263.07 622.903ZM253.998 617.683C253.11 617.683 252.354 618.199 251.73 619.231C251.13 620.263 250.83 621.511 250.83 622.975V623.047C252.246 622.711 253.362 622.207 254.178 621.535C254.994 620.863 255.402 620.083 255.402 619.195C255.402 618.739 255.27 618.379 255.006 618.115C254.766 617.827 254.43 617.683 253.998 617.683ZM281.074 622.903C281.386 622.903 281.626 623.047 281.794 623.335C281.986 623.623 282.082 624.019 282.082 624.523C282.082 625.483 281.854 626.227 281.398 626.755C280.366 628.027 279.25 629.071 278.05 629.887C276.874 630.703 275.53 631.111 274.018 631.111C272.746 631.111 271.714 630.655 270.922 629.743C269.554 630.631 268.126 631.087 266.638 631.111C266.326 635.743 265.618 639.607 264.514 642.703C263.41 645.823 261.79 647.383 259.654 647.383C258.358 647.383 257.398 646.915 256.774 645.979C256.15 645.043 255.838 643.747 255.838 642.091C255.838 639.739 256.378 636.991 257.458 633.847C258.538 630.727 260.206 627.283 262.462 623.515C262.462 620.011 262.438 617.575 262.39 616.207C262.366 615.511 262.642 614.959 263.218 614.551C263.794 614.143 264.514 613.939 265.378 613.939C265.882 613.939 266.242 614.047 266.458 614.263C266.698 614.455 266.83 614.851 266.854 615.451C266.854 616.051 266.866 616.495 266.89 616.783C267.658 615.823 268.414 615.139 269.158 614.731C269.902 614.299 270.694 614.083 271.534 614.083C272.878 614.083 273.97 614.623 274.81 615.703C275.674 616.783 276.106 618.199 276.106 619.951C276.106 621.223 275.902 622.459 275.494 623.659C275.086 624.859 274.522 625.951 273.802 626.935C274.306 627.079 274.726 627.151 275.062 627.151C275.854 627.151 276.61 626.863 277.33 626.287C278.05 625.711 278.974 624.751 280.102 623.407C280.39 623.071 280.714 622.903 281.074 622.903ZM266.818 627.655C267.682 627.463 268.474 626.995 269.194 626.251C269.938 625.483 270.526 624.547 270.958 623.443C271.39 622.315 271.606 621.139 271.606 619.915C271.606 619.195 271.462 618.655 271.174 618.295C270.886 617.911 270.502 617.719 270.022 617.719C269.158 617.719 268.114 618.631 266.89 620.455C266.866 621.511 266.854 623.059 266.854 625.099C266.854 626.203 266.842 627.055 266.818 627.655ZM259.942 643.855C260.59 643.855 261.13 642.439 261.562 639.607C261.994 636.799 262.27 633.295 262.39 629.095C261.358 631.495 260.542 633.787 259.942 635.971C259.342 638.155 259.042 639.991 259.042 641.479C259.042 642.247 259.138 642.835 259.33 643.243C259.498 643.651 259.702 643.855 259.942 643.855ZM295.238 622.903C295.55 622.903 295.79 623.047 295.958 623.335C296.15 623.623 296.246 624.019 296.246 624.523C296.246 625.483 296.018 626.227 295.562 626.755C294.53 628.027 293.402 629.071 292.178 629.887C290.954 630.703 289.55 631.111 287.966 631.111C283.07 631.111 280.622 627.667 280.622 620.779C280.622 619.723 280.658 618.655 280.73 617.575H279.326C278.606 617.575 278.114 617.443 277.85 617.179C277.61 616.915 277.49 616.495 277.49 615.919C277.49 614.575 278.03 613.903 279.11 613.903H281.162C281.57 611.263 282.194 608.851 283.034 606.667C283.874 604.483 284.882 602.743 286.058 601.447C287.258 600.151 288.542 599.503 289.91 599.503C290.918 599.503 291.71 599.947 292.286 600.835C292.862 601.723 293.15 602.839 293.15 604.183C293.15 607.903 291.59 611.143 288.47 613.903H292.502C292.886 613.903 293.162 613.987 293.33 614.155C293.498 614.323 293.582 614.635 293.582 615.091C293.582 616.747 292.226 617.575 289.514 617.575H285.122C285.074 618.775 285.05 619.711 285.05 620.383C285.05 622.879 285.338 624.631 285.914 625.639C286.514 626.647 287.45 627.151 288.722 627.151C289.754 627.151 290.666 626.839 291.458 626.215C292.25 625.591 293.186 624.655 294.266 623.407C294.554 623.071 294.878 622.903 295.238 622.903ZM288.938 602.959C288.578 602.959 288.17 603.415 287.714 604.327C287.282 605.215 286.862 606.463 286.454 608.071C286.07 609.655 285.746 611.419 285.482 613.363C286.898 612.139 287.954 610.771 288.65 609.259C289.37 607.723 289.73 606.331 289.73 605.083C289.73 603.667 289.466 602.959 288.938 602.959ZM298.03 611.779C297.022 611.779 296.266 611.551 295.762 611.095C295.258 610.615 295.006 609.955 295.006 609.115C295.006 608.275 295.33 607.579 295.978 607.027C296.65 606.451 297.478 606.163 298.462 606.163C299.35 606.163 300.07 606.379 300.622 606.811C301.174 607.243 301.45 607.855 301.45 608.647C301.45 609.607 301.138 610.375 300.514 610.951C299.89 611.503 299.062 611.779 298.03 611.779ZM297.742 631.111C296.182 631.111 295.042 630.559 294.322 629.455C293.626 628.351 293.278 626.887 293.278 625.063C293.278 623.983 293.41 622.603 293.674 620.923C293.962 619.219 294.322 617.635 294.754 616.171C294.97 615.403 295.258 614.875 295.618 614.587C295.978 614.299 296.554 614.155 297.346 614.155C298.57 614.155 299.182 614.563 299.182 615.379C299.182 615.979 298.954 617.371 298.498 619.555C297.922 622.195 297.634 623.983 297.634 624.919C297.634 625.639 297.73 626.191 297.922 626.575C298.114 626.959 298.438 627.151 298.894 627.151C299.326 627.151 299.866 626.851 300.514 626.251C301.162 625.651 302.026 624.703 303.106 623.407C303.394 623.071 303.718 622.903 304.078 622.903C304.39 622.903 304.63 623.047 304.798 623.335C304.99 623.623 305.086 624.019 305.086 624.523C305.086 625.483 304.858 626.227 304.402 626.755C302.026 629.659 299.806 631.111 297.742 631.111ZM318.23 622.903C318.542 622.903 318.782 623.047 318.95 623.335C319.142 623.623 319.238 624.019 319.238 624.523C319.238 625.483 319.01 626.227 318.554 626.755C317.666 627.835 316.406 628.831 314.774 629.743C313.166 630.655 311.438 631.111 309.59 631.111C307.07 631.111 305.114 630.427 303.722 629.059C302.33 627.691 301.634 625.819 301.634 623.443C301.634 621.787 301.982 620.251 302.678 618.835C303.374 617.395 304.334 616.255 305.558 615.415C306.806 614.575 308.21 614.155 309.77 614.155C311.162 614.155 312.278 614.575 313.118 615.415C313.958 616.231 314.378 617.347 314.378 618.763C314.378 620.419 313.778 621.847 312.578 623.047C311.402 624.223 309.398 625.159 306.566 625.855C307.166 626.959 308.306 627.511 309.986 627.511C311.066 627.511 312.29 627.139 313.658 626.395C315.05 625.627 316.25 624.631 317.258 623.407C317.546 623.071 317.87 622.903 318.23 622.903ZM309.158 617.683C308.27 617.683 307.514 618.199 306.89 619.231C306.29 620.263 305.99 621.511 305.99 622.975V623.047C307.406 622.711 308.522 622.207 309.338 621.535C310.154 620.863 310.562 620.083 310.562 619.195C310.562 618.739 310.43 618.379 310.166 618.115C309.926 617.827 309.59 617.683 309.158 617.683ZM318.863 631.111C317.951 631.111 317.303 630.631 316.919 629.671C316.559 628.711 316.379 627.175 316.379 625.063C316.379 621.943 316.823 618.979 317.711 616.171C317.927 615.475 318.275 614.971 318.755 614.659C319.259 614.323 319.955 614.155 320.843 614.155C321.323 614.155 321.659 614.215 321.851 614.335C322.043 614.455 322.139 614.683 322.139 615.019C322.139 615.403 321.959 616.267 321.599 617.611C321.359 618.571 321.167 619.411 321.023 620.131C320.879 620.827 320.759 621.703 320.663 622.759C321.311 620.887 322.079 619.303 322.967 618.007C323.879 616.711 324.803 615.751 325.739 615.127C326.699 614.479 327.599 614.155 328.439 614.155C329.279 614.155 329.867 614.347 330.203 614.731C330.563 615.115 330.743 615.703 330.743 616.495C330.743 617.263 330.515 618.655 330.059 620.671C329.867 621.535 329.735 622.183 329.663 622.615C330.863 619.663 332.195 617.515 333.659 616.171C335.123 614.827 336.491 614.155 337.763 614.155C339.323 614.155 340.103 614.935 340.103 616.495C340.103 617.431 339.839 619.123 339.311 621.571C338.855 623.659 338.627 625.039 338.627 625.711C338.627 626.671 338.975 627.151 339.671 627.151C340.151 627.151 340.715 626.863 341.363 626.287C342.035 625.687 342.923 624.727 344.027 623.407C344.315 623.071 344.639 622.903 344.999 622.903C345.311 622.903 345.551 623.047 345.719 623.335C345.911 623.623 346.007 624.019 346.007 624.523C346.007 625.483 345.779 626.227 345.323 626.755C344.291 628.027 343.175 629.071 341.975 629.887C340.799 630.703 339.455 631.111 337.943 631.111C336.719 631.111 335.795 630.763 335.171 630.067C334.547 629.347 334.235 628.315 334.235 626.971C334.235 626.299 334.403 625.099 334.739 623.371C335.051 621.859 335.207 620.815 335.207 620.239C335.207 619.855 335.075 619.663 334.811 619.663C334.499 619.663 334.055 620.071 333.479 620.887C332.903 621.679 332.327 622.735 331.751 624.055C331.175 625.375 330.707 626.767 330.347 628.231C330.083 629.383 329.771 630.151 329.411 630.535C329.075 630.919 328.523 631.111 327.755 631.111C326.963 631.111 326.363 630.739 325.955 629.995C325.571 629.227 325.379 628.303 325.379 627.223C325.379 626.311 325.499 624.991 325.739 623.263C325.931 621.727 326.027 620.719 326.027 620.239C326.027 619.855 325.895 619.663 325.631 619.663C325.271 619.663 324.815 620.095 324.263 620.959C323.711 621.823 323.171 622.927 322.643 624.271C322.139 625.615 321.731 626.935 321.419 628.231C321.155 629.359 320.843 630.127 320.483 630.535C320.147 630.919 319.607 631.111 318.863 631.111ZM362.248 619.879C362.56 619.879 362.8 620.035 362.968 620.347C363.136 620.659 363.22 621.055 363.22 621.535C363.22 622.135 363.136 622.603 362.968 622.939C362.8 623.251 362.536 623.467 362.176 623.587C360.736 624.091 359.152 624.379 357.424 624.451C356.944 626.443 356.032 628.051 354.688 629.275C353.368 630.499 351.904 631.111 350.296 631.111C347.872 631.111 346.108 630.187 345.004 628.339C343.9 626.491 343.348 623.815 343.348 620.311C343.348 617.215 343.732 613.855 344.5 610.231C345.268 606.583 346.384 603.487 347.848 600.943C349.336 598.375 351.1 597.091 353.14 597.091C354.244 597.091 355.132 597.571 355.804 598.531C356.476 599.467 356.812 600.691 356.812 602.203C356.812 604.171 356.44 606.127 355.696 608.071C354.952 610.015 353.716 612.055 351.988 614.191C353.596 614.311 354.904 614.983 355.912 616.207C356.92 617.407 357.52 618.895 357.712 620.671C358.84 620.599 360.184 620.359 361.744 619.951C361.888 619.903 362.056 619.879 362.248 619.879ZM352.312 600.655C351.832 600.655 351.304 601.375 350.728 602.815C350.176 604.231 349.66 606.163 349.18 608.611C348.7 611.059 348.34 613.735 348.1 616.639C349.684 613.735 350.944 611.179 351.88 608.971C352.84 606.739 353.32 604.759 353.32 603.031C353.32 602.263 353.224 601.675 353.032 601.267C352.864 600.859 352.624 600.655 352.312 600.655ZM350.44 627.295C351.184 627.295 351.844 626.983 352.42 626.359C352.996 625.735 353.38 624.835 353.572 623.659C352.828 623.155 352.252 622.495 351.844 621.679C351.46 620.863 351.268 619.999 351.268 619.087C351.268 618.751 351.316 618.295 351.412 617.719H351.304C350.32 617.719 349.492 618.211 348.82 619.195C348.172 620.155 347.848 621.451 347.848 623.083C347.848 624.451 348.1 625.495 348.604 626.215C349.132 626.935 349.744 627.295 350.44 627.295ZM362.667 631.111C361.755 631.111 361.107 630.631 360.723 629.671C360.363 628.711 360.183 627.175 360.183 625.063C360.183 621.943 360.627 618.979 361.515 616.171C361.731 615.475 362.079 614.971 362.559 614.659C363.063 614.323 363.759 614.155 364.647 614.155C365.127 614.155 365.463 614.215 365.655 614.335C365.847 614.455 365.943 614.683 365.943 615.019C365.943 615.403 365.763 616.267 365.403 617.611C365.163 618.571 364.971 619.411 364.827 620.131C364.683 620.851 364.563 621.739 364.467 622.795C365.259 620.731 366.147 619.051 367.131 617.755C368.115 616.459 369.075 615.535 370.011 614.983C370.971 614.431 371.847 614.155 372.639 614.155C374.199 614.155 374.979 614.935 374.979 616.495C374.979 616.807 374.871 617.563 374.655 618.763C374.463 619.723 374.367 620.323 374.367 620.563C374.367 621.403 374.667 621.823 375.267 621.823C375.939 621.823 376.803 621.295 377.859 620.239C378.171 619.927 378.495 619.771 378.831 619.771C379.143 619.771 379.383 619.915 379.551 620.203C379.743 620.467 379.839 620.827 379.839 621.283C379.839 622.171 379.599 622.867 379.119 623.371C378.447 624.067 377.655 624.667 376.743 625.171C375.855 625.651 374.907 625.891 373.899 625.891C372.627 625.891 371.655 625.567 370.983 624.919C370.335 624.271 370.011 623.395 370.011 622.291C370.011 621.931 370.047 621.571 370.119 621.211C370.167 620.731 370.191 620.407 370.191 620.239C370.191 619.855 370.059 619.663 369.795 619.663C369.435 619.663 368.955 620.071 368.355 620.887C367.779 621.679 367.203 622.735 366.627 624.055C366.051 625.375 365.583 626.767 365.223 628.231C364.959 629.359 364.647 630.127 364.287 630.535C363.951 630.919 363.411 631.111 362.667 631.111ZM389.382 623.983C389.694 623.983 389.934 624.127 390.102 624.415C390.294 624.703 390.39 625.099 390.39 625.603C390.39 626.467 390.186 627.211 389.778 627.835C389.106 628.867 388.218 629.671 387.114 630.247C386.034 630.823 384.738 631.111 383.226 631.111C380.922 631.111 379.134 630.427 377.862 629.059C376.59 627.667 375.954 625.795 375.954 623.443C375.954 621.787 376.302 620.251 376.998 618.835C377.694 617.395 378.654 616.255 379.878 615.415C381.126 614.575 382.53 614.155 384.09 614.155C385.482 614.155 386.598 614.575 387.438 615.415C388.278 616.231 388.698 617.347 388.698 618.763C388.698 620.419 388.098 621.847 386.898 623.047C385.722 624.223 383.706 625.159 380.85 625.855C381.426 626.959 382.398 627.511 383.766 627.511C384.75 627.511 385.554 627.283 386.178 626.827C386.826 626.371 387.57 625.603 388.41 624.523C388.698 624.163 389.022 623.983 389.382 623.983ZM383.478 617.683C382.59 617.683 381.834 618.199 381.21 619.231C380.61 620.263 380.31 621.511 380.31 622.975V623.047C381.726 622.711 382.842 622.207 383.658 621.535C384.474 620.863 384.882 620.083 384.882 619.195C384.882 618.739 384.75 618.379 384.486 618.115C384.246 617.827 383.91 617.683 383.478 617.683Z" fill="black"/>
<path d="M264.398 576.675C263.331 576.675 262.392 576.355 261.582 575.715C260.771 575.075 260.366 574.072 260.366 572.707L260.43 572.003C260.899 567.608 261.454 563.043 262.094 558.307C262.776 553.528 263.352 549.859 263.822 547.299L258.83 548.707L258.062 548.835C257.251 548.835 256.611 548.515 256.142 547.875C255.672 547.235 255.438 546.509 255.438 545.699L255.502 545.123C255.587 544.312 255.843 543.651 256.27 543.139C256.696 542.627 257.507 542.115 258.702 541.603C259.939 541.091 261.774 540.536 264.206 539.939L266.894 539.299C267.875 539.085 268.686 538.979 269.326 538.979C270.563 538.979 271.48 539.299 272.078 539.939C272.718 540.579 273.038 541.475 273.038 542.627C273.038 543.139 272.974 543.693 272.846 544.291C272.163 547.619 270.862 557.091 268.942 572.707C268.6 575.352 267.086 576.675 264.398 576.675ZM307.852 561.955C310.113 561.955 311.244 562.915 311.244 564.835C311.244 566.371 310.817 567.437 309.964 568.035C309.111 568.632 307.767 568.931 305.932 568.931H304.588L304.332 572.323C304.204 574.285 303.777 575.608 303.052 576.291C302.369 576.973 301.239 577.315 299.66 577.315C297.399 577.315 296.268 575.928 296.268 573.155C296.268 572.685 296.289 572.323 296.332 572.067L296.652 568.931C290.465 568.931 285.772 568.909 282.572 568.867C281.633 568.867 280.801 568.44 280.076 567.587C279.351 566.733 278.988 565.624 278.988 564.259C278.988 563.448 279.137 562.595 279.436 561.699C281.313 556.237 284.129 550.029 287.884 543.075C288.695 541.581 289.505 540.536 290.316 539.939C291.169 539.299 292.471 538.979 294.22 538.979C295.159 538.979 295.863 539.192 296.332 539.619C296.844 540.045 297.1 540.6 297.1 541.283C297.1 542.008 296.887 542.733 296.46 543.459C292.279 551.096 289.335 557.261 287.628 561.955H297.484C297.996 557.987 298.7 554.211 299.596 550.627C299.937 549.304 300.492 548.301 301.26 547.619C302.028 546.893 303.095 546.531 304.46 546.531C306.636 546.531 307.724 547.469 307.724 549.347C307.724 549.901 307.681 550.328 307.596 550.627C306.828 554.253 306.145 558.029 305.548 561.955H307.852Z" fill="black"/>
<path d="M536.279 521.743L541.979 531.864L507.346 576.57L506.655 611.622L500.415 610.991L467.419 362.512L483.914 336.496L546.94 473.544L514.72 508.583L546.018 482.634L549.578 508.802L521.694 529.335L536.279 521.743Z" fill="#00A019"/>
<path d="M550.402 647.426V709.051H521.561V691.434H486.345V709.051H457.509V647.426H550.402Z" fill="#F4846C"/>
<path d="M454.35 702.162H553.556V684.188H454.35V702.162ZM454.35 677.305H553.556V659.33H454.35V677.305ZM454.35 652.441H553.556V634.466H454.35V652.441ZM553.556 609.603V627.577H454.35V609.603H553.556Z" fill="#F6B6A8"/>
<path d="M487.218 527.201L476.491 537.898L487.061 518.978L479.802 499.566L463.925 512.416L476.727 492.222L452.27 452.367L454.865 445.763L419.256 412.294L412.258 415.393L415.302 407.388L363.276 399.941L368.4 440.269L405.296 470.609C405.296 470.609 432.913 479.62 439.832 482.943L410.171 477.722L420.493 499.481C420.493 499.481 442.015 508.79 446.206 515.503L422.549 506.048L482.009 588.244L485.387 609.603H493.635L489.232 576.601L487.218 527.201ZM655 402.713L631.234 405.563L617.45 394.168L581.797 425.981L579.893 461.597L575.618 431.209L550.02 457.801V491.039L540.912 466.824L532.361 475.151L539.014 520.961L523.325 499.59L512.87 519.056L523.325 561.798L509.887 609.603H516.564L553.768 559.426L582.246 563.702L594.157 539.481L561.828 535.206L597.48 531.409L626.952 456.376L611.27 457.801L631.707 450.675L655 402.713ZM459.135 582.301L443.968 600.439L437.819 655.885L459.177 614.612L470.669 600.864L476.303 609.603H484.768L478.571 596.595L459.135 582.301ZM562.737 600.439L568.887 655.885L547.528 614.612L536.036 600.864L530.402 609.603H521.943L528.134 596.595L547.57 582.301L562.737 600.439Z" fill="#1ED760"/>
<path d="M482.234 572.392L460.815 557.741C460.469 557.504 460.002 557.595 459.772 557.935C459.535 558.28 459.62 558.741 459.966 558.978L482.701 574.527C486.073 590.106 487.801 602.695 488.601 609.603H490.105C489.317 602.665 487.564 589.888 484.138 574.048C484.132 573.981 484.114 573.914 484.089 573.848C483.028 568.935 481.797 563.732 480.384 558.323L488.644 548.778C488.917 548.462 488.88 547.995 488.565 547.722C488.256 547.45 487.783 547.486 487.51 547.795L479.923 556.564C477.352 546.898 474.199 536.601 470.336 526.121C469.499 523.853 468.638 521.622 467.764 519.414L481.294 502.446C481.549 502.119 481.494 501.652 481.173 501.391C480.851 501.136 480.372 501.185 480.117 501.512L467.122 517.807C464.138 510.378 460.936 503.283 457.534 496.54C457.528 496.528 457.522 496.515 457.516 496.503C453.125 487.825 448.401 479.717 443.349 472.234L452.943 452.701C453.125 452.325 452.974 451.882 452.604 451.7C452.228 451.512 451.779 451.67 451.597 452.04L442.373 470.821C439.25 466.279 436.018 461.955 432.652 457.886C430.748 455.575 428.801 453.35 426.818 451.197V451.191C420.881 444.738 414.605 438.977 408.013 433.914C409.341 431.051 411.633 421.488 412.985 415.557C413.076 415.157 412.828 414.75 412.421 414.665C412.021 414.568 411.615 414.823 411.524 415.223C409.826 422.67 407.74 430.754 406.818 433.016C401.039 428.68 395.017 424.878 388.765 421.615C388.734 421.603 388.704 421.591 388.68 421.573C381.312 417.746 373.628 414.665 365.641 412.349C365.241 412.228 364.829 412.458 364.714 412.858C364.598 413.252 364.829 413.671 365.223 413.786C372.658 415.939 379.638 418.722 386.193 422.021L366.624 426.988C366.217 427.091 365.981 427.498 366.078 427.898C366.169 428.237 366.472 428.462 366.806 428.462C366.866 428.462 366.927 428.456 366.994 428.438L388.213 423.052C402.167 430.384 414.162 440.063 424.465 451.033L383.592 452.028C383.179 452.04 382.852 452.379 382.858 452.798C382.87 453.204 383.204 453.526 383.61 453.526C383.616 453.526 383.622 453.526 383.628 453.526L425.818 452.501C437.958 465.763 447.685 480.803 455.436 495.818L414.926 486.661C414.52 486.57 414.119 486.825 414.029 487.231C413.938 487.631 414.192 488.031 414.592 488.122L456.321 497.559C461.33 507.455 465.484 517.31 468.917 526.607C470.166 530.009 471.342 533.386 472.452 536.728L436.382 524.126C435.993 523.993 435.569 524.193 435.429 524.587C435.29 524.975 435.502 525.406 435.89 525.539L473.04 538.523C476.94 550.542 479.941 562.077 482.234 572.392ZM500.985 609.603L493.131 550.488L515.199 528.59L514.787 526.886L492.889 548.62L486.012 496.831L537.965 453.556C538.28 453.289 538.323 452.816 538.056 452.501C537.795 452.179 537.316 452.137 537.001 452.404L485.775 495.078L479.614 448.686L519.572 413.519C519.881 413.24 519.911 412.767 519.638 412.458C519.366 412.149 518.893 412.118 518.583 412.397L479.378 446.897L472.367 394.059L499.972 370.936C500.287 370.669 500.33 370.196 500.063 369.881C499.796 369.565 499.323 369.523 499.008 369.784L472.131 392.294L468.165 362.409C468.11 362.003 467.728 361.718 467.322 361.767C466.909 361.821 466.618 362.197 466.679 362.609L499.475 609.603H500.985ZM536.716 505.121L531.318 510.476L532.216 511.694L536.982 506.97L536.716 505.121ZM543.338 609.603H537.134L544.029 627.577H463.798L470.633 609.603H463.368L459.177 614.612L454.35 623.945V627.577H457.51V634.46L457.497 634.466H454.35V652.441L461.179 634.466H546.667L553.556 652.441V634.466H550.403V627.577H553.556V626.267L547.528 614.612L543.338 609.603ZM469.547 589.051C469.268 588.735 468.795 588.717 468.492 588.99L448.68 606.674L437.091 655.716C436.994 656.116 437.243 656.516 437.649 656.613C437.704 656.625 437.758 656.631 437.819 656.631C438.158 656.631 438.468 656.401 438.547 656.055L450.026 607.474L469.487 590.106C469.796 589.827 469.826 589.354 469.547 589.051ZM558.032 606.674L538.219 588.99C537.91 588.717 537.437 588.735 537.158 589.051C536.885 589.354 536.91 589.827 537.219 590.106L556.679 607.474L568.159 656.055C568.244 656.401 568.547 656.631 568.887 656.631C568.947 656.631 569.002 656.625 569.063 656.613C569.469 656.516 569.718 656.116 569.62 655.716L558.032 606.674ZM646.704 421.251C646.752 421.658 646.455 422.028 646.043 422.082L613.484 425.897C603.823 437.886 594.145 452.113 584.806 467.273L623.538 464.187C623.945 464.15 624.308 464.46 624.339 464.872C624.375 465.284 624.066 465.648 623.653 465.678L583.841 468.856C577.601 479.056 571.525 489.651 565.709 500.257L610.809 496.582C611.222 496.558 611.586 496.855 611.616 497.267C611.652 497.68 611.343 498.044 610.931 498.074L564.854 501.828C555.855 518.329 547.528 534.799 540.275 549.772L589.02 549.166C589.433 549.154 589.772 549.493 589.778 549.906C589.784 550.318 589.451 550.658 589.032 550.664L539.542 551.276C525.551 580.264 515.703 603.344 513.077 609.603H511.446C513.435 604.854 521.737 585.279 533.896 559.621L517.947 508.499C517.825 508.104 518.044 507.686 518.438 507.559C518.832 507.437 519.256 507.662 519.378 508.056L534.842 557.626C535.958 555.279 537.11 552.889 538.28 550.458C538.304 550.276 538.377 550.112 538.505 549.997C542.458 541.816 546.746 533.18 551.282 524.32L535.442 471.664C535.327 471.27 535.551 470.851 535.945 470.73C536.34 470.621 536.764 470.839 536.879 471.233L552.271 522.398C555.891 515.369 559.675 508.214 563.58 501.052C563.605 500.845 563.702 500.67 563.853 500.548C565.958 496.697 568.098 492.847 570.263 489.014L563.568 443.059C563.508 442.652 563.799 442.264 564.205 442.21C564.605 442.143 564.993 442.434 565.054 442.846L571.47 486.891C574.927 480.827 578.456 474.817 582.046 468.941C581.749 468.856 581.525 468.608 581.5 468.286C581.464 467.874 581.773 467.516 582.186 467.48L582.974 467.419C589.875 456.17 596.964 445.412 604.108 435.666L596.085 412.846C595.946 412.458 596.152 412.034 596.54 411.894C596.934 411.755 597.359 411.961 597.498 412.355L605.188 434.211C607.595 430.954 610.015 427.819 612.428 424.829C612.465 424.756 612.513 424.702 612.574 424.647C615.976 420.439 619.366 416.509 622.744 412.907L616.734 394.399C616.607 394.004 616.825 393.58 617.213 393.453C617.613 393.325 618.038 393.543 618.159 393.932L623.92 411.67C626.201 409.292 628.469 407.061 630.731 405.011C631.034 404.732 631.507 404.756 631.786 405.06C632.071 405.369 632.046 405.836 631.737 406.115C626.164 411.185 620.512 417.316 614.836 424.229L645.867 420.596C646.279 420.542 646.655 420.839 646.704 421.251Z" fill="#25201F"/>
<path d="M317.327 223.048H314.984V131.402H317.327V223.048Z" fill="#151412"/>
<path d="M321.967 210.829C337.022 210.517 340.523 197.985 339.368 190.779C338.03 182.424 330.333 173.735 329.329 163.376C329.329 163.376 314.819 160.991 314.269 164.712C312.598 176.073 304.232 180.753 302.892 189.441C301.345 199.489 305.905 211.164 321.967 210.829Z" fill="#FBC53C"/>
<path d="M322.302 201.362C331.783 200.47 332.898 191.893 332.006 186.767C331.028 181.154 325.313 174.851 325.313 163.707C325.313 162.149 319.066 162.261 319.066 163.041C319.066 174.423 311.258 180.753 310.255 187.437C309.251 194.12 312.949 202.241 322.302 201.362Z" fill="#FDFEFA" fill-opacity="0.86"/>
<path d="M314.047 163.707C316.171 164.133 327.803 164.645 329.329 163.376C329.998 162.818 329.664 140.203 328.659 139.09C327.656 137.976 315.052 138.087 314.047 139.312C313.044 140.538 313.49 163.598 314.047 163.707Z" fill="#1C1918"/>
<path d="M315.733 162.804C316.116 163.189 318.213 163.651 318.488 162.5C318.608 161.996 318.548 141.48 318.368 140.469C318.186 139.459 315.913 139.56 315.733 140.671C315.551 141.783 315.632 162.703 315.733 162.804Z" fill="#908782"/>
<path d="M328.827 241.02C328.576 241.02 328.358 240.832 328.328 240.577C327.819 236.339 325.967 225.137 325.16 221.752C325.096 221.483 325.262 221.213 325.532 221.147C325.804 221.084 326.072 221.251 326.136 221.519C326.972 225.026 328.806 236.133 329.324 240.458C329.358 240.733 329.162 240.983 328.886 241.015C328.866 241.018 328.846 241.02 328.827 241.02Z" fill="#FBC53C"/>
<path d="M282.301 136.948L326.469 141.808L361.522 136.982L316.175 132.581L282.301 136.948ZM326.502 144.166L326.357 144.15L271.293 138.09V136.009L316.138 130.227L316.27 130.24L373.02 135.76L373.021 137.762L326.502 144.166Z" fill="#151412"/>
<path d="M314.4 240.16C314.326 240.427 314.482 240.703 314.748 240.778C314.793 240.791 314.839 240.796 314.884 240.796C315.103 240.796 315.305 240.653 315.368 240.431C315.746 239.078 316.223 237.028 316.717 234.736L315.715 234.627C315.232 236.854 314.77 238.841 314.4 240.16Z" fill="#FBC53C"/>
<path d="M319.395 220.995C319.44 220.722 319.255 220.464 318.981 220.417C318.708 220.374 318.45 220.556 318.405 220.829C318.345 221.182 318.273 221.601 318.189 222.071L319.192 222.168C319.27 221.726 319.339 221.33 319.395 220.995Z" fill="#FBC53C"/>
<path d="M317.769 224.38C317.332 226.709 316.772 229.583 316.203 232.324L317.203 232.434C317.775 229.678 318.337 226.799 318.77 224.477L317.769 224.38Z" fill="#FBC53C"/>
<path d="M294.568 227.012C293.855 227.92 293.177 228.807 292.562 229.636C292.543 229.662 292.528 229.69 292.514 229.717L293.66 229.844C294.37 228.896 295.164 227.871 295.994 226.828L294.568 227.012Z" fill="#FBC53C"/>
<path d="M304.168 217.617C304.379 217.436 304.403 217.119 304.223 216.91C304.041 216.701 303.725 216.675 303.514 216.855C301.972 218.177 299.286 221.197 296.677 224.38L298.137 224.193C300.488 221.366 302.819 218.771 304.168 217.617Z" fill="#FBC53C"/>
<path d="M311.129 224.876C310.099 226.825 308.928 229.132 307.83 231.403L308.793 231.509C309.955 229.115 311.187 226.701 312.239 224.733L311.129 224.876Z" fill="#FBC53C"/>
<path d="M314.285 221.11C314.419 220.897 314.356 220.615 314.142 220.482C313.93 220.348 313.648 220.411 313.512 220.623C313.244 221.048 312.901 221.635 312.504 222.34L313.638 222.193C313.883 221.767 314.102 221.4 314.285 221.11Z" fill="#FBC53C"/>
<path d="M304.636 238.501C304.545 238.736 304.659 239.002 304.894 239.094C304.949 239.116 305.007 239.125 305.062 239.125C305.244 239.125 305.416 239.017 305.487 238.836C306.047 237.418 306.836 235.638 307.723 233.749L306.764 233.645C305.921 235.448 305.174 237.139 304.636 238.501Z" fill="#FBC53C"/>
<path d="M336.429 227.756C337.196 229.052 337.999 230.413 338.779 231.759L339.756 231.624C338.917 230.171 338.046 228.694 337.217 227.292C337.001 226.925 336.787 226.564 336.578 226.206L335.452 226.097C335.769 226.638 336.098 227.192 336.429 227.756Z" fill="#FBC53C"/>
<path d="M342.18 238.005C342.259 238.168 342.421 238.263 342.592 238.263C342.658 238.263 342.726 238.249 342.79 238.218C343.017 238.108 343.112 237.835 343.003 237.608C342.452 236.471 341.758 235.173 340.995 233.804L340.022 233.939C340.846 235.406 341.597 236.799 342.18 238.005Z" fill="#FBC53C"/>
<path d="M333.853 221.462C333.734 221.24 333.455 221.158 333.234 221.275C333.012 221.396 332.928 221.672 333.048 221.895C333.325 222.408 333.65 222.987 334.003 223.606L335.12 223.714C334.64 222.884 334.207 222.121 333.853 221.462Z" fill="#FBC53C"/>
<path d="M373.021 227.395L335.12 223.714C335.57 224.495 336.062 225.334 336.578 226.206L361.522 228.628L339.757 231.624C340.182 232.361 340.597 233.092 340.995 233.804L373.021 229.371V227.395Z" fill="#151412"/>
<path d="M293.66 229.844C293.561 229.975 293.464 230.105 293.369 230.234C293.271 230.366 293.118 230.437 292.965 230.437C292.862 230.437 292.757 230.405 292.667 230.339C292.47 230.192 292.411 229.929 292.514 229.717L282.301 228.593L294.569 227.012C295.248 226.144 295.96 225.256 296.677 224.38L271.293 227.654V229.749L306.764 233.645C307.107 232.91 307.464 232.158 307.83 231.403L293.66 229.844Z" fill="#151412"/>
<path d="M316.174 224.226L317.768 224.38C317.928 223.525 318.07 222.743 318.189 222.071L316.269 221.884L316.137 221.871L313.638 222.193C313.235 222.892 312.759 223.757 312.239 224.733L316.174 224.226Z" fill="#151412"/>
<path d="M335.452 226.097C334.933 225.216 334.444 224.379 334.002 223.606L319.192 222.168C319.073 222.839 318.931 223.619 318.77 224.477L335.452 226.097Z" fill="#151412"/>
<path d="M318.77 224.477C318.931 223.619 319.073 222.839 319.192 222.168L318.189 222.071C318.07 222.743 317.928 223.525 317.769 224.38L318.77 224.477Z" fill="#FBC53C"/>
<path d="M311.129 224.876C311.628 223.931 312.095 223.069 312.504 222.34L298.137 224.193C297.416 225.06 296.693 225.95 295.994 226.828L311.129 224.876Z" fill="#151412"/>
<path d="M308.793 231.509C308.427 232.263 308.066 233.013 307.723 233.749L315.716 234.627C315.877 233.881 316.039 233.107 316.203 232.324L308.793 231.509Z" fill="#151412"/>
<path d="M326.469 233.455L317.203 232.434C317.042 233.216 316.88 233.989 316.717 234.736L326.357 235.794L326.501 235.81L340.022 233.939C339.623 233.226 339.205 232.495 338.779 231.759L326.469 233.455Z" fill="#151412"/>
<path d="M316.204 232.324C316.039 233.107 315.877 233.881 315.716 234.627L316.717 234.736C316.88 233.989 317.042 233.216 317.204 232.434L316.204 232.324Z" fill="#151412"/>
<path d="M292.667 230.339C292.757 230.405 292.862 230.437 292.965 230.437C293.118 230.437 293.271 230.366 293.369 230.234C293.464 230.105 293.561 229.975 293.661 229.844L292.514 229.717C292.411 229.929 292.471 230.192 292.667 230.339Z" fill="#151412"/>
<path d="M295.994 226.828C296.693 225.95 297.416 225.06 298.137 224.193L296.677 224.38C295.96 225.256 295.248 226.144 294.569 227.012L295.994 226.828Z" fill="#FBC53C"/>
<path d="M312.239 224.733C312.759 223.757 313.235 222.892 313.638 222.193L312.504 222.34C312.095 223.069 311.628 223.931 311.129 224.876L312.239 224.733Z" fill="#FBC53C"/>
<path d="M307.83 231.403C307.464 232.158 307.107 232.91 306.764 233.645L307.724 233.749C308.067 233.013 308.427 232.263 308.793 231.509L307.83 231.403Z" fill="#151412"/>
<path d="M336.578 226.206C336.062 225.334 335.57 224.495 335.12 223.714L334.003 223.606C334.444 224.379 334.933 225.216 335.452 226.097L336.578 226.206Z" fill="#FBC53C"/>
<path d="M338.779 231.759C339.206 232.495 339.623 233.226 340.022 233.939L340.995 233.804C340.597 233.092 340.181 232.361 339.756 231.624L338.779 231.759Z" fill="#151412"/>
<path d="M373.021 228.308H370.678V136.6H373.021V228.308Z" fill="#151412"/>
<path d="M327.656 147.717V229.292L347.716 185.743L327.656 147.717ZM325.315 234.194V141.808L327.904 143.167L348.95 183.062L370.493 136.293L372.62 137.272L350.327 185.672L372.593 227.883L370.52 228.973L349.092 188.352L328.065 234.002L325.315 234.194Z" fill="#151412"/>
<path d="M271.293 229.749V137.267H273.636V224.781L325.494 142.366L327.478 143.609L273.154 229.939L271.293 229.749Z" fill="#151412"/>
<path d="M325.46 235.199L271.418 137.605L273.468 136.473L327.51 234.066L325.46 235.199Z" fill="#151412"/>
<path d="M351.414 228.487C351.277 228.487 351.14 228.432 351.042 228.321C347.715 224.631 340.636 219.668 337.747 217.705C337.518 217.551 337.459 217.238 337.615 217.01C337.771 216.781 338.082 216.721 338.312 216.876C341.232 218.86 348.388 223.878 351.787 227.651C351.973 227.855 351.956 228.173 351.75 228.358C351.655 228.445 351.535 228.487 351.414 228.487Z" fill="#FBC53C"/>
<path d="M322.804 135.272C322.774 134.137 321.028 67.6585 319.155 0H316.812C318.685 67.6779 320.432 134.198 320.461 135.333L322.804 135.272Z" fill="#100F0D"/>
<path d="M324.811 132.294C325.257 132.963 325.37 139.09 324.811 139.201C324.254 139.312 318.453 139.536 318.229 139.201C318.007 138.866 317.896 133.185 318.342 132.406C318.788 131.626 324.341 131.587 324.811 132.294Z" fill="#1C1918"/>
<path d="M319.429 138.501C319.666 138.599 320.962 138.72 321.133 138.423C321.207 138.293 321.17 133.024 321.059 132.765C320.946 132.505 319.457 132.51 319.429 132.816C319.178 135.581 319.366 138.475 319.429 138.501Z" fill="#908782"/>
</svg>
