<svg width="79" height="80" viewBox="0 0 79 80" fill="none" xmlns="http://www.w3.org/2000/svg">
<path d="M39.4533 72.8869C58.0463 72.8869 73.1189 57.8143 73.1189 39.2213C73.1189 20.6283 58.0463 5.55566 39.4533 5.55566C20.8603 5.55566 5.78766 20.6283 5.78766 39.2213C5.78766 57.8143 20.8603 72.8869 39.4533 72.8869Z" fill="#19DEA3"/>
<path d="M16.1701 47.9248H62.7364C63.2224 46.9529 63.6642 45.9809 64.0177 44.9648C65.4756 40.9885 66.315 35.731 65.6523 31.0921C65.3873 29.2807 64.9013 27.5576 64.1502 26.0113C62.2946 22.3001 58.5834 20.2678 54.563 19.6051C50.3659 18.9424 47.1849 19.6493 43.4737 21.4165C37.8628 24.1115 35.1236 20.0469 29.9544 19.34C25.2271 18.6773 19.3511 20.0469 16.1701 23.8023C12.3706 28.2645 12.724 36.1286 13.8727 41.5187C14.3145 43.8161 15.1981 45.8484 16.1701 47.9248Z" fill="white"/>
<path d="M62.7364 49.2503H16.1701C15.6399 49.2503 15.1981 48.941 14.9772 48.4992C13.9611 46.3344 13.0333 44.1695 12.5473 41.7838C11.752 37.9842 10.3824 28.4854 15.1539 22.9187C17.8931 19.7377 22.5321 17.8379 27.6129 17.8379C28.4965 17.8379 29.3359 17.8821 30.1753 18.0146C32.2076 18.2797 33.8865 19.0308 35.3445 19.6935C36.935 20.4004 38.3046 21.0189 39.8509 21.0189C40.8229 21.0189 41.839 20.7538 42.9435 20.2236C46.0803 18.7215 48.7754 18.0588 51.6029 18.0588C52.6191 18.0588 53.6794 18.1471 54.8281 18.3239C59.688 19.0749 63.5317 21.6816 65.3873 25.4369C66.1825 27.0274 66.7127 28.883 67.0219 30.9153C67.6405 35.3334 67.0219 40.7676 65.3431 45.4066C64.9455 46.5111 64.4595 47.5714 64.0177 48.4992C63.7084 48.9852 63.2224 49.2503 62.7364 49.2503ZM17.0095 46.5994H61.8528C62.1621 45.9367 62.4713 45.2298 62.7364 44.523C64.2827 40.2374 64.8571 35.2892 64.2827 31.2688C64.0177 29.5016 63.5759 27.9552 62.9132 26.5856C60.8808 22.521 56.6395 21.284 54.2979 20.8863C53.326 20.7096 52.3982 20.6654 51.5146 20.6654C49.0404 20.6654 46.8314 21.2398 44.0039 22.6094C42.5459 23.3163 41.1321 23.6697 39.7625 23.6697C37.686 23.6697 35.9188 22.8745 34.1958 22.1234C32.8262 21.5049 31.3682 20.8863 29.7335 20.6213C29.0266 20.5329 28.2756 20.4887 27.5687 20.4887C23.3273 20.4887 19.3511 22.0792 17.1421 24.6417C13.0333 29.4132 14.5796 38.5586 15.1098 41.2094C15.5074 43.1092 16.2143 44.788 17.0095 46.5994Z" fill="#393A3A"/>
<path d="M18.8209 36.7472C18.1582 36.7472 17.5839 36.217 17.4955 35.5543C17.1421 31.7106 17.8489 28.7063 19.6162 26.674C21.6043 24.3766 24.2551 24.2441 24.3435 24.2441C25.0504 24.1999 25.7131 24.7743 25.7131 25.5253C25.7573 26.2322 25.1829 26.8507 24.476 26.8949C24.3877 26.8949 22.7972 27.0275 21.5601 28.4854C20.3231 29.9434 19.8371 32.2408 20.1022 35.3334C20.1905 36.0845 19.6162 36.703 18.9093 36.7914C18.9093 36.7472 18.8651 36.7472 18.8209 36.7472Z" fill="#393A3A"/>
<path d="M65.829 47.9248H13.0333V55.4355H65.829V47.9248Z" fill="white"/>
<path d="M65.8732 56.7609H13.0333C12.2822 56.7609 11.7079 56.1866 11.7079 55.4355V47.9248C11.7079 47.1737 12.2822 46.5994 13.0333 46.5994H65.8291C66.5801 46.5994 67.1545 47.1737 67.1545 47.9248V55.4355C67.1987 56.1866 66.5801 56.7609 65.8732 56.7609ZM14.3587 54.1101H64.5036V49.2502H14.3587V54.1101Z" fill="#393A3A"/>
<path d="M57.3022 64.4926H21.5601C20.8091 64.4926 20.2347 63.9183 20.2347 63.1672C20.2347 62.4161 20.8091 61.8418 21.5601 61.8418H57.3022C58.0533 61.8418 58.6276 62.4161 58.6276 63.1672C58.6276 63.9183 58.0533 64.4926 57.3022 64.4926Z" fill="#393A3A"/>
<path d="M55.1815 72.3566H23.725C22.9739 72.3566 22.3995 71.7823 22.3995 71.0312C22.3995 70.2802 22.9739 69.7058 23.725 69.7058H55.2257C55.9768 69.7058 56.5511 70.2802 56.5511 71.0312C56.5511 71.7823 55.9326 72.3566 55.1815 72.3566Z" fill="#393A3A"/>
<path d="M48.5986 80H30.2637C29.5126 80 28.9383 79.4256 28.9383 78.6745C28.9383 77.9235 29.5126 77.3491 30.2637 77.3491H48.5986C49.3497 77.3491 49.9241 77.9235 49.9241 78.6745C49.9241 79.4256 49.3497 80 48.5986 80Z" fill="#393A3A"/>
<path d="M14.3587 69.706C14.2261 69.706 14.0494 69.6618 13.9169 69.5293C13.5634 69.22 13.2542 68.9549 12.9007 68.6457C12.6356 68.3806 12.5914 67.983 12.8565 67.7179C13.1216 67.4528 13.5192 67.4086 13.7843 67.6737C14.0936 67.983 14.447 68.2481 14.7563 68.5131C15.0214 68.7341 15.0656 69.1758 14.8447 69.4409C14.7121 69.6177 14.5354 69.706 14.3587 69.706Z" fill="#393A3A"/>
<path d="M11.4869 66.9667C11.3102 66.9667 11.1335 66.8784 11.001 66.7458C10.3824 66.1273 9.80809 65.4204 9.23374 64.7577C9.01284 64.4926 9.01283 64.0508 9.3221 63.8299C9.58718 63.609 10.029 63.609 10.2499 63.9182C10.7801 64.581 11.3986 65.1995 11.9729 65.818C12.238 66.0831 12.238 66.4807 11.9729 66.7458C11.7962 66.9225 11.6195 66.9667 11.4869 66.9667ZM67.6846 66.7458C67.5079 66.7458 67.3754 66.7016 67.2428 66.5691C66.9778 66.304 66.9778 65.9064 67.1987 65.6413C67.773 65.0228 68.3474 64.3601 68.9217 63.6973C69.1426 63.4323 69.5844 63.3881 69.8495 63.609C70.1146 63.8299 70.1588 64.2717 69.9379 64.5368C69.3635 65.1995 68.7892 65.9064 68.1706 66.5249C68.0381 66.6575 67.8614 66.7458 67.6846 66.7458ZM8.08505 62.9905C7.86414 62.9905 7.68742 62.9021 7.55487 62.7254C7.02471 62.0185 6.53872 61.2674 6.05274 60.5163C5.87602 60.2071 5.96438 59.8095 6.27364 59.5886C6.5829 59.4118 6.98053 59.5002 7.20144 59.8095C7.64324 60.5163 8.12922 61.2674 8.65939 61.9301C8.88029 62.2394 8.79194 62.637 8.52685 62.8579C8.39431 62.9463 8.21759 62.9905 8.08505 62.9905ZM70.9982 62.6812C70.8656 62.6812 70.7331 62.637 70.6006 62.5487C70.2913 62.3278 70.2471 61.9301 70.468 61.6209C70.954 60.914 71.44 60.2071 71.8818 59.456C72.0585 59.1468 72.5003 59.0584 72.8096 59.2351C73.1189 59.4118 73.2072 59.8536 73.0305 60.1629C72.5445 60.914 72.0585 61.665 71.5725 62.3719C71.44 62.5928 71.2191 62.6812 70.9982 62.6812ZM5.30167 58.5282C5.08077 58.5282 4.85986 58.3957 4.72732 58.1748C4.28551 57.3795 3.88789 56.5843 3.53445 55.789C3.4019 55.4356 3.53444 55.0821 3.84371 54.9054C4.15297 54.7287 4.5506 54.9054 4.72732 55.2147C5.08077 56.0099 5.47839 56.761 5.87602 57.5121C6.05274 57.8213 5.9202 58.219 5.61093 58.3957C5.52257 58.5282 5.39003 58.5282 5.30167 58.5282ZM73.7816 58.2189C73.6932 58.2189 73.5607 58.1748 73.4723 58.1306C73.163 57.9539 73.0305 57.5563 73.2072 57.247C73.6048 56.4959 74.0025 55.7007 74.3559 54.9496C74.4885 54.5962 74.8861 54.4636 75.2395 54.5962C75.593 54.7287 75.7255 55.1263 75.593 55.4798C75.2395 56.275 74.8419 57.1144 74.4443 57.8655C74.2234 58.0864 74.0025 58.2189 73.7816 58.2189ZM3.13682 53.7567C2.87173 53.7567 2.60665 53.58 2.51829 53.3149C2.20903 52.4755 1.89977 51.636 1.67886 50.7966C1.5905 50.4432 1.76722 50.0897 2.12067 49.9572C2.47411 49.8688 2.82756 50.0455 2.9601 50.399C3.22518 51.2384 3.49026 52.0337 3.79953 52.8289C3.93207 53.1824 3.75535 53.5358 3.4019 53.6684C3.26936 53.7567 3.22518 53.7567 3.13682 53.7567ZM75.9022 53.4474C75.8139 53.4474 75.7697 53.4475 75.6813 53.4033C75.3279 53.2707 75.1512 52.9173 75.2837 52.5638C75.593 51.7686 75.858 50.9292 76.079 50.1339C76.1673 49.7805 76.5649 49.5596 76.9184 49.6921C77.2718 49.7805 77.4927 50.1781 77.3602 50.5315C77.0951 51.371 76.83 52.2546 76.5208 53.0498C76.4324 53.2707 76.1673 53.4474 75.9022 53.4474ZM1.63468 48.7643C1.32542 48.7643 1.06033 48.5434 0.971971 48.2341C0.795249 47.3947 0.618524 46.5111 0.485982 45.6275C0.441802 45.274 0.66271 44.9206 1.01615 44.8764C1.3696 44.8322 1.72304 45.0531 1.76722 45.4066C1.89976 46.246 2.07648 47.0854 2.25321 47.9249C2.34157 48.2783 2.12067 48.6318 1.76722 48.7201C1.72304 48.7643 1.67886 48.7643 1.63468 48.7643ZM77.3602 48.4109C77.316 48.4109 77.2718 48.4109 77.2277 48.4109C76.8742 48.3225 76.6533 47.9691 76.7417 47.6156C76.9184 46.7762 77.0951 45.9368 77.1835 45.0973C77.2276 44.7439 77.5811 44.4788 77.9345 44.523C78.288 44.5672 78.5531 44.9206 78.5089 45.274C78.3763 46.1576 78.1996 47.0413 78.0229 47.8807C77.9345 48.19 77.6694 48.4109 77.3602 48.4109ZM0.795252 43.5952C0.441807 43.5952 0.176724 43.3301 0.132543 42.9767C0.0883625 42.3139 0.0441806 41.6512 0 40.9443C0 40.7234 0 40.5025 0 40.2816C0 39.9282 0.265083 39.6189 0.662709 39.6189C1.01615 39.6189 1.32542 39.884 1.32542 40.2816C1.32542 40.5025 1.32542 40.6793 1.32542 40.9002C1.3696 41.5629 1.41378 42.2256 1.45796 42.8441C1.50214 43.1976 1.23705 43.551 0.839428 43.551C0.839428 43.5952 0.839432 43.5952 0.795252 43.5952ZM78.1113 43.2417H78.0671C77.7136 43.1976 77.4486 42.8883 77.4486 42.5349C77.5369 41.6954 77.5369 40.8118 77.5811 39.9724C77.5811 39.6189 77.8904 39.3097 78.2438 39.3097C78.5972 39.3097 78.9065 39.6189 78.9065 39.9724C78.9065 40.856 78.8623 41.7396 78.774 42.6232C78.774 42.9767 78.4647 43.2417 78.1113 43.2417ZM0.706885 38.3377C0.706885 38.3377 0.662705 38.3377 0.706885 38.3377C0.30926 38.3377 0.0441765 38.0284 0.0441765 37.6308C0.0883571 36.7472 0.132538 35.8636 0.265079 34.98C0.30926 34.6265 0.618529 34.3615 1.01615 34.4056C1.3696 34.4498 1.63468 34.7591 1.5905 35.1567C1.50214 35.9961 1.41377 36.8797 1.36959 37.7192C1.32541 38.0726 1.06033 38.3377 0.706885 38.3377ZM78.1996 37.9842C77.8462 37.9842 77.5369 37.7192 77.5369 37.3657C77.4927 36.5263 77.4044 35.6427 77.316 34.8033C77.2718 34.4498 77.5369 34.0964 77.8904 34.0522C78.2438 34.008 78.5972 34.2731 78.6414 34.6265C78.7298 35.5101 78.8181 36.3938 78.8623 37.2774C78.8623 37.6308 78.5972 37.9401 78.1996 37.9842ZM1.28123 33.1244C1.23705 33.1244 1.19287 33.1244 1.14869 33.1244C0.795246 33.0802 0.530164 32.7268 0.618525 32.3733C0.795248 31.4897 0.971971 30.6061 1.19287 29.7667C1.28124 29.4132 1.63468 29.1923 1.98813 29.2807C2.34157 29.369 2.56247 29.7225 2.47411 30.0759C2.25321 30.9154 2.07648 31.7548 1.94394 32.5942C1.85558 32.9035 1.5905 33.1244 1.28123 33.1244ZM77.5369 32.7709C77.2276 32.7709 76.9626 32.55 76.8742 32.2408C76.6975 31.4013 76.5208 30.5619 76.2999 29.7225C76.2115 29.369 76.4324 29.0156 76.7858 28.9272C77.1393 28.8389 77.4927 29.0598 77.5811 29.4132C77.802 30.2526 78.0229 31.1363 78.1554 32.0199C78.2438 32.3733 77.9787 32.7268 77.6253 32.8151C77.6253 32.7709 77.5811 32.7709 77.5369 32.7709ZM2.56247 28.0436C2.47411 28.0436 2.42993 28.0436 2.34157 27.9994C1.98813 27.8669 1.81141 27.5135 1.89977 27.16C2.16485 26.3206 2.47411 25.4812 2.82755 24.6417C2.9601 24.2883 3.35772 24.1557 3.71117 24.2883C4.06461 24.4208 4.19715 24.8184 4.06461 25.1719C3.75535 25.9671 3.44608 26.7624 3.181 27.6018C3.09264 27.8669 2.82756 28.0436 2.56247 28.0436ZM76.2115 27.6902C75.9464 27.6902 75.6813 27.5135 75.593 27.2484C75.3279 26.4531 75.0186 25.6137 74.7094 24.8184C74.5768 24.465 74.7094 24.1116 75.0628 23.9348C75.4163 23.8023 75.7697 23.9348 75.9464 24.2883C76.2999 25.1277 76.6091 25.9671 76.8742 26.7624C77.0067 27.1158 76.7858 27.4693 76.4766 27.6018C76.3882 27.6902 76.2999 27.6902 76.2115 27.6902ZM4.5506 23.1838C4.46224 23.1838 4.37387 23.1838 4.24133 23.0954C3.93207 22.9187 3.75535 22.5211 3.93207 22.2118C4.32969 21.4165 4.72732 20.6213 5.16913 19.8702C5.34585 19.5609 5.74347 19.4284 6.05274 19.6051C6.362 19.7819 6.49455 20.1795 6.31782 20.4888C5.87602 21.2398 5.47839 21.9909 5.12494 22.7861C5.03658 23.0512 4.7715 23.1838 4.5506 23.1838ZM74.2234 22.8745C73.9583 22.8745 73.7374 22.7419 73.649 22.521C73.2514 21.77 72.8538 20.9747 72.412 20.2678C72.2353 19.9586 72.3236 19.561 72.6329 19.3401C72.9421 19.1633 73.3398 19.2517 73.5607 19.561C74.0025 20.312 74.4443 21.1073 74.8419 21.9025C75.0186 22.2118 74.8861 22.6094 74.5326 22.7861C74.4001 22.8303 74.3117 22.8745 74.2234 22.8745ZM7.15725 18.6332C7.02471 18.6332 6.89217 18.589 6.80381 18.5006C6.49454 18.2797 6.40618 17.8821 6.62709 17.5728C7.11307 16.8218 7.64324 16.1149 8.17341 15.408C8.39431 15.0987 8.79193 15.0545 9.1012 15.2754C9.41046 15.4963 9.45464 15.894 9.23374 16.2032C8.70357 16.8659 8.21759 17.5728 7.7316 18.2797C7.55488 18.5448 7.33397 18.6332 7.15725 18.6332ZM71.5725 18.3681C71.3516 18.3681 71.1307 18.2797 71.0424 18.0588C70.5564 17.3519 70.0704 16.645 69.5402 15.9823C69.3193 15.6731 69.3635 15.2754 69.6728 15.0545C69.982 14.8336 70.3797 14.8778 70.6006 15.1871C71.1307 15.894 71.6609 16.6009 72.1911 17.3519C72.412 17.6612 72.3236 18.0588 72.0143 18.2797C71.8376 18.3239 71.7051 18.3681 71.5725 18.3681ZM10.3383 14.4802C10.1615 14.4802 10.029 14.436 9.89645 14.3035C9.63136 14.0826 9.58719 13.6408 9.85227 13.3757C10.4266 12.713 11.0451 12.0503 11.6637 11.4317C11.9288 11.1666 12.3264 11.1666 12.5915 11.4317C12.8565 11.6968 12.8565 12.0944 12.5915 12.3595C11.9729 12.978 11.3986 13.5966 10.8242 14.2151C10.6917 14.3918 10.515 14.4802 10.3383 14.4802ZM68.3474 14.2151C68.1706 14.2151 67.9939 14.1267 67.8614 13.9942C67.287 13.3757 66.6685 12.713 66.0941 12.1386C65.8291 11.8735 65.8291 11.4759 66.0941 11.2108C66.3592 10.9457 66.7569 10.9457 67.0219 11.2108C67.6405 11.8294 68.259 12.4921 68.8775 13.1548C69.1426 13.4199 69.0984 13.8617 68.8333 14.0826C68.6566 14.1709 68.5241 14.2151 68.3474 14.2151ZM14.0494 10.769C13.8727 10.769 13.696 10.6807 13.5634 10.5481C13.3425 10.283 13.3425 9.84123 13.6076 9.62033C14.2703 9.04598 14.9772 8.47162 15.6841 7.94146C15.9934 7.72055 16.391 7.76474 16.6119 8.07401C16.8328 8.38327 16.7886 8.7809 16.4794 9.0018C15.8166 9.53197 15.1098 10.0621 14.4912 10.6365C14.3587 10.7248 14.2261 10.769 14.0494 10.769ZM64.592 10.5481C64.4595 10.5481 64.2827 10.5039 64.1502 10.3714C63.4875 9.79704 62.8248 9.26688 62.1179 8.7809C61.8086 8.55999 61.7645 8.16237 61.9854 7.8531C62.2063 7.54384 62.6039 7.49965 62.9131 7.72055C63.62 8.25072 64.3269 8.82508 64.9896 9.39942C65.2547 9.62033 65.2989 10.0621 65.078 10.3272C64.9896 10.5039 64.7687 10.5481 64.592 10.5481ZM18.2466 7.6322C18.0257 7.6322 17.8048 7.54383 17.6722 7.32293C17.4513 7.01367 17.5397 6.61604 17.849 6.39514C18.6 5.90915 19.3511 5.46735 20.1463 5.02555C20.4556 4.84883 20.8532 4.98136 21.03 5.29062C21.2067 5.59988 21.0741 5.99751 20.7649 6.17423C20.0138 6.57186 19.2627 7.05784 18.5558 7.49965C18.4675 7.58801 18.3349 7.6322 18.2466 7.6322ZM60.3948 7.45548C60.2623 7.45548 60.1298 7.41129 60.0414 7.36711C59.3345 6.92531 58.5835 6.43932 57.8324 6.0417C57.5231 5.86497 57.3906 5.46735 57.5673 5.15808C57.744 4.84882 58.1416 4.71628 58.4509 4.893C59.2462 5.3348 59.9972 5.77661 60.7483 6.2626C61.0576 6.43932 61.1459 6.88113 60.9692 7.19039C60.8367 7.32294 60.6158 7.45548 60.3948 7.45548ZM22.7972 5.06972C22.5321 5.06972 22.3112 4.93718 22.1786 4.6721C22.0019 4.36283 22.1786 3.96521 22.4879 3.78848C23.2832 3.39086 24.1226 3.03742 24.9178 2.72815C25.2713 2.59561 25.6247 2.77233 25.7573 3.08159C25.8898 3.43504 25.7131 3.78849 25.4038 3.92103C24.6086 4.2303 23.8133 4.58374 23.0623 4.93718C22.9739 5.02554 22.8855 5.06972 22.7972 5.06972ZM55.8001 4.93718C55.7117 4.93718 55.6233 4.93718 55.535 4.893C54.7397 4.53955 53.9445 4.18611 53.1492 3.87685C52.7958 3.74431 52.6191 3.34669 52.7516 3.03742C52.8842 2.68398 53.2818 2.50724 53.591 2.63979C54.4305 2.94905 55.2257 3.30251 56.0652 3.70013C56.4186 3.83267 56.5511 4.2303 56.3744 4.58374C56.2861 4.76047 56.0652 4.93718 55.8001 4.93718ZM27.657 3.12578C27.392 3.12578 27.1269 2.94905 27.0385 2.68397C26.906 2.33053 27.1269 1.97708 27.4803 1.84454C28.3197 1.57946 29.2034 1.31437 30.0428 1.13765C30.3962 1.04929 30.7497 1.27019 30.838 1.62364C30.9264 1.97708 30.7055 2.33052 30.3521 2.41888C29.5126 2.63979 28.6732 2.86069 27.8779 3.12578C27.7896 3.12578 27.7454 3.12578 27.657 3.12578ZM50.896 3.03742C50.8518 3.03742 50.7635 3.03742 50.7193 2.99324C49.8799 2.72816 49.0846 2.50725 48.2452 2.33053C47.8917 2.24217 47.6708 1.88872 47.7592 1.53527C47.8476 1.18183 48.201 0.960936 48.5545 1.0493C49.3939 1.2702 50.2775 1.49109 51.1169 1.75618C51.4704 1.84454 51.6471 2.24217 51.5587 2.59562C51.4262 2.8607 51.2053 3.03742 50.896 3.03742ZM32.7378 1.88872C32.4285 1.88872 32.1635 1.66782 32.0751 1.35855C32.0309 1.00511 32.2518 0.651672 32.6053 0.607491C33.4889 0.474949 34.3725 0.342399 35.2561 0.254038C35.6095 0.209858 35.963 0.474949 35.963 0.828394C36.0072 1.18184 35.7421 1.53527 35.3886 1.53527C34.5492 1.62363 33.6656 1.75618 32.8262 1.88872C32.8262 1.88872 32.782 1.88872 32.7378 1.88872ZM45.8153 1.84454C45.7711 1.84454 45.7269 1.84454 45.7269 1.84454C44.8875 1.712 44.0039 1.57946 43.1644 1.4911C42.811 1.44692 42.5459 1.13766 42.5459 0.784211C42.5459 0.430766 42.8993 0.165685 43.2528 0.165685C44.1364 0.254046 45.02 0.386583 45.9036 0.519124C46.2571 0.563305 46.5221 0.916755 46.4338 1.2702C46.3896 1.62364 46.1245 1.84454 45.8153 1.84454ZM37.9953 1.35855L37.9069 0.0331354H37.9511C38.8789 -0.0110451 39.7183 -0.0110451 40.6019 0.0331354C40.9554 0.0331354 41.2647 0.342399 41.2647 0.695844C41.2647 1.04929 40.9554 1.35855 40.6019 1.35855C39.7183 1.31437 38.8789 1.31437 37.9953 1.35855Z" fill="#393A3A"/>
<path d="M64.7687 69.4851C64.592 69.4851 64.4153 69.3967 64.2827 69.2642C64.0618 68.9991 64.0618 68.5573 64.3711 68.3364C64.6804 68.0713 65.0338 67.762 65.3431 67.4528C65.6082 67.1877 66.0499 67.2318 66.2709 67.4969C66.5359 67.762 66.4918 68.2038 66.2267 68.4247C65.9174 68.734 65.564 69.0433 65.2105 69.3083C65.078 69.4409 64.9454 69.4851 64.7687 69.4851Z" fill="#393A3A"/>
</svg>
