<svg width="185" height="185" viewBox="0 0 185 185" fill="none" xmlns="http://www.w3.org/2000/svg">
<g clip-path="url(#clip0_21_120)">
<path d="M92.5 185C92.5 185 161.875 119.256 161.875 69.375C161.875 50.9756 154.566 33.3298 141.556 20.3195C128.545 7.30913 110.899 0 92.5 0C74.1006 0 56.4548 7.30913 43.4445 20.3195C30.4341 33.3298 23.125 50.9756 23.125 69.375C23.125 119.256 92.5 185 92.5 185ZM92.5 104.062C83.3003 104.062 74.4774 100.408 67.9722 93.9028C61.4671 87.3976 57.8125 78.5747 57.8125 69.375C57.8125 60.1753 61.4671 51.3524 67.9722 44.8472C74.4774 38.3421 83.3003 34.6875 92.5 34.6875C101.7 34.6875 110.523 38.3421 117.028 44.8472C123.533 51.3524 127.188 60.1753 127.188 69.375C127.188 78.5747 123.533 87.3976 117.028 93.9028C110.523 100.408 101.7 104.062 92.5 104.062Z" fill="#F39C18"/>
</g>
<defs>
<clipPath id="clip0_21_120">
<rect width="185" height="185" fill="white"/>
</clipPath>
</defs>
</svg>
