<svg width="55" height="60" viewBox="0 0 55 60" fill="none" xmlns="http://www.w3.org/2000/svg">
<path fill-rule="evenodd" clip-rule="evenodd" d="M0 0H34.9069V11.703C34.7954 11.7557 34.6825 11.8085 34.568 11.8616C32.6387 12.7139 30.4527 13.5147 28.5509 14.2114C25.7659 15.2317 23.5905 16.0287 23.7232 16.4368C23.8998 16.9802 24.8505 16.6065 25.8331 16.2202C26.0923 16.1183 26.3538 16.0155 26.6038 15.9284L31.3485 14.0645C32.7835 13.549 33.9196 13.1112 34.9069 12.679V46.7685H9.31525C8.6011 44.4931 8.07541 42.1865 7.45585 38.8043L6.60859 31.5179L6.26969 24.0621L6.43913 16.7757C6.43913 16.7757 7.11694 11.3532 8.13365 9.82818C9.15035 8.30312 9.82816 8.13367 9.82816 8.13367C11.3532 7.62531 13.4663 8.77992 15.9284 10.1671L21.8592 12.8783L22.0597 12.9427C23.4857 13.4015 23.9663 13.5561 25.5871 13.5561C26.2649 13.5561 28.9761 12.8783 28.6372 11.5227C28.4415 10.7397 26.8326 10.8047 25.2471 10.8687C24.0874 10.9155 22.9402 10.9618 22.3675 10.6754C22.3675 10.6754 19.7125 9.30434 15.9284 6.6086C12.9806 4.32647 9.65871 3.05012 7.9642 3.72793C6.26969 4.40574 4.8647 6.77063 4.23627 10.506C3.75451 12.9234 3.5734 14.8757 3.38902 19.3174C2.97889 26.1364 4.57518 36.7709 4.57518 36.7709C4.57518 36.7709 5.64791 42.2248 6.98012 46.7685H0V0ZM6.98012 46.7685C7.4568 48.3943 7.96669 49.9036 8.47255 51.0048C8.47255 51.0048 9.31981 53.0382 10.1671 54.3938C11.0143 55.7494 11.5227 56.0883 12.3699 55.9189C13.073 55.7783 12.4806 54.513 11.4939 52.4054C11.2916 51.9732 11.0726 51.5055 10.8449 51.0048C10.2293 49.4582 9.73908 48.1189 9.31525 46.7685H6.98012ZM34.9069 12.679C36.4955 11.9837 37.699 11.3029 39.1432 10.3366C39.1432 10.3366 44.9045 6.77808 46.938 7.11698C48.9714 7.45588 52.0373 10.3683 52.3604 15.2506C52.8832 20.407 52.9185 23.2635 52.5298 28.2984C51.9508 34.2559 51.4098 37.4443 49.4797 42.8712C48.098 46.6793 47.1488 48.7811 44.5656 52.3604C43.4775 53.9734 42.6394 54.8996 40.6683 56.5967C39.9819 57.1088 39.2216 57.582 36.7709 58.969C36.7709 58.969 34.9069 59.8163 35.2458 59.9857C35.5847 60.1552 39.2661 58.8056 41.9278 56.5967C45.0181 53.7419 46.8542 51.0868 49.7226 45.2435C52.1075 39.7605 53.1253 35.643 54.0549 25.926C54.4421 20.2509 53.716 14.0645 52.6993 11.3533C51.9529 9.48868 51.3059 8.65455 50.327 7.62533C48.8836 6.46077 48.1094 6.17883 46.7685 6.10027C45.1699 6.1809 44.1432 6.48922 42.0239 7.62533C38.6671 9.75947 37.0263 10.7027 34.9069 11.703V12.679Z" fill="#19DEA3"/>
</svg>
