<svg width="99" height="40" viewBox="0 0 99 40" fill="none" xmlns="http://www.w3.org/2000/svg">
<path d="M22.2322 15.513C22.1872 15.513 22.097 15.513 22.0519 15.513C21.3303 15.4228 20.7892 14.7463 20.8794 13.9797C22.593 1.0372 34.2728 0.0450958 35.5806 0C35.6708 0 35.8061 0 35.8963 0C37.2041 0.0901916 48.6133 1.03722 50.5524 13.5739C50.6877 14.2954 50.1466 15.0169 49.4251 15.1071C48.7035 15.2424 47.982 14.7012 47.8918 13.9797C46.3134 3.56257 36.8433 2.79594 35.761 2.70575C34.6336 2.75085 24.9831 3.56256 23.5851 14.3405C23.4498 15.0169 22.9087 15.513 22.2322 15.513Z" fill="#393A3A"/>
<path d="M49.4701 39.9999H24.6223C22.4577 39.9999 20.6539 38.2411 20.6539 36.0314V21.8263C20.6539 21.0596 21.2401 20.4734 22.0067 20.4734C22.7734 20.4734 23.3596 21.0596 23.3596 21.8263V36.0314C23.3596 36.7079 23.9008 37.2941 24.6223 37.2941H48.1172V22.2772C48.1172 21.5106 48.7035 20.9243 49.4701 20.9243C50.2367 20.9243 50.823 21.5106 50.823 22.2772V38.647C50.823 39.3685 50.1916 39.9999 49.4701 39.9999Z" fill="#393A3A"/>
<path d="M19.3912 31.0259H4.14882C1.84893 31.0259 0 29.177 0 26.8771V13.3484C0 3.29201 7.30552 0.225479 11.6347 0C11.7249 0 11.8151 0 11.9053 0C16.2345 0.225479 23.54 3.29201 23.54 13.3484C23.54 14.115 22.9538 14.7013 22.1872 14.7013C21.4205 14.7013 20.8343 14.115 20.8343 13.3484C20.8343 3.4273 12.6719 2.75085 11.77 2.70575C10.8681 2.75085 2.70575 3.4724 2.70575 13.3484V26.8771C2.70575 27.6438 3.3371 28.3202 4.14882 28.3202H19.3912C20.1578 28.3202 20.8343 27.6889 20.8343 26.8771V22.2322C20.8343 21.4656 21.4205 20.8794 22.1872 20.8794C22.9538 20.8794 23.54 21.4656 23.54 22.2322V26.8771C23.4949 29.177 21.646 31.0259 19.3912 31.0259Z" fill="#393A3A"/>
<path d="M87.1702 14.7013C85.8624 14.7013 84.7801 15.4679 84.239 16.5502H66.1556C65.6144 15.4679 64.5321 14.7013 63.2243 14.7013C61.9166 14.7013 60.8343 15.4679 60.2931 16.5502H38.6922C38.151 15.4679 37.0687 14.7013 35.761 14.7013C34.4532 14.7013 33.3709 15.4679 32.8297 16.5502H14.5659C14.0248 15.4679 12.9425 14.7013 11.6347 14.7013C9.83087 14.7013 8.34271 16.1444 8.34271 17.9933C8.34271 19.7971 9.78577 21.2853 11.6347 21.2853C12.9425 21.2853 14.0248 20.5187 14.5659 19.4364H32.8297C33.3709 20.5187 34.4532 21.2853 35.761 21.2853C37.0687 21.2853 38.151 20.5187 38.6922 19.4364H60.2931C60.8343 20.5187 61.9166 21.2853 63.2243 21.2853C64.5321 21.2853 65.6144 20.5187 66.1556 19.4364H84.239C84.7801 20.5187 85.8624 21.2853 87.1702 21.2853C88.974 21.2853 90.4622 19.8422 90.4622 17.9933C90.4622 16.1444 88.974 14.7013 87.1702 14.7013Z" fill="#F39C18"/>
<path d="M76.708 15.513C76.0316 15.513 75.4453 15.0169 75.3551 14.3405C73.9571 3.56256 64.2615 2.75085 63.1792 2.70575C62.0969 2.75085 52.6268 3.56257 51.0485 13.9797C50.9132 14.7012 50.2367 15.2424 49.5152 15.1071C48.7937 14.9718 48.2525 14.2954 48.3878 13.5739C50.2818 1.03722 61.7362 0.0901916 63.0439 0C63.1341 0 63.2694 0 63.3596 0C64.6674 0.0901916 76.3923 1.0372 78.0609 13.9797C78.1511 14.7012 77.655 15.3777 76.8884 15.513C76.7982 15.513 76.7531 15.513 76.708 15.513Z" fill="#393A3A"/>
<path d="M74.2728 39.9999H49.425C48.6584 39.9999 48.0721 39.4136 48.0721 38.647V22.2772C48.0721 21.5106 48.6584 20.9243 49.425 20.9243C50.1916 20.9243 50.7779 21.5106 50.7779 22.2772V37.2941H74.2728C74.9492 37.2941 75.5355 36.753 75.5355 36.0314V21.8263C75.5355 21.0596 76.1217 20.4734 76.8883 20.4734C77.655 20.4734 78.2412 21.0596 78.2412 21.8263V36.0314C78.2412 38.196 76.4825 39.9999 74.2728 39.9999Z" fill="#393A3A"/>
<path d="M94.7914 31.0259H79.549C77.2491 31.0259 75.4002 29.177 75.4002 26.8771V22.2322C75.4002 21.4656 75.9865 20.8794 76.7531 20.8794C77.5197 20.8794 78.106 21.4656 78.106 22.2322V26.8771C78.106 27.6438 78.7373 28.3202 79.549 28.3202H94.7914C95.558 28.3202 96.2345 27.6889 96.2345 26.8771V13.3484C96.2345 3.4273 88.0721 2.75085 87.1702 2.70575C86.2683 2.75085 78.106 3.4724 78.106 13.3484C78.106 14.115 77.5197 14.7013 76.7531 14.7013C75.9865 14.7013 75.4002 14.115 75.4002 13.3484C75.4002 3.29201 82.7057 0.225479 87.0349 0C87.1251 0 87.2153 0 87.3055 0C91.6347 0.225479 98.9402 3.29201 98.9402 13.3484V26.8771C98.9402 29.177 97.0913 31.0259 94.7914 31.0259Z" fill="#393A3A"/>
</svg>
