<svg width="83" height="80" viewBox="0 0 83 80" fill="none" xmlns="http://www.w3.org/2000/svg">
<path d="M41.1739 80C41.087 80 40.9565 80 40.8696 79.9565C21.7826 75.2609 13.913 68.1739 7.91305 59C2.73914 51.0435 0 41.6956 0 31.8696V1.30435C0 0.565217 0.565217 0 1.30435 0H81.0435C81.7826 0 82.3478 0.565217 82.3478 1.30435V31.8696C82.3478 41.6956 79.6087 51.0869 74.4348 59C68.4348 68.1739 60.5652 75.2609 41.4783 79.9565C41.3913 79.9565 41.2609 80 41.1739 80ZM2.6087 2.6087V31.8696C2.6087 41.1739 5.2174 50.087 10.087 57.5652C15.6957 66.1739 23.1304 72.8696 41.1739 77.3478C59.1739 72.8696 66.6522 66.1739 72.2609 57.5652C77.1739 50.0435 79.7391 41.1739 79.7391 31.8696V2.6087H2.6087Z" fill="#393A3A"/>
<path d="M41.174 73.2174C25.0435 68.9565 18.5218 63.1304 13.3913 55.2174C8.82612 48.2174 6.43481 39.9565 6.43481 31.2609V6.47827H75.9131V31.2609C75.9131 39.9565 73.5218 48.2174 68.9566 55.2174C63.7827 63.1304 57.2609 68.9565 41.174 73.2174Z" fill="#19DEA3"/>
<path d="M59.4348 26.4782C59.2609 25.2173 58.913 23.9999 58.3913 22.9564C57.0869 20.3477 54.4782 18.9564 51.7391 18.4782C48.8261 17.9999 46.6087 18.4782 44 19.739C40.0869 21.6086 38.1739 18.7825 34.5652 18.2608C31.2609 17.7825 27.1739 18.739 24.9565 21.3477C22.3043 24.4782 22.5652 29.9564 23.3478 33.6956C23.9565 36.5217 25.4782 38.8695 26.4348 41.5217C26.5652 41.8695 26.6522 42.2173 26.7391 42.5651C27.7826 46.7825 29.6087 54.4347 32.0435 54.739C34.5217 55.0869 34.5652 50.6956 35.6522 46.0869C36.6956 41.4782 41.1739 41.913 41.1739 41.913C41.1739 41.913 45.6522 41.4782 46.6956 46.0869C47.7391 50.6956 47.8261 55.0869 50.3043 54.739C52.7826 54.3912 54.5652 46.739 55.6087 42.5651C56.1739 40.3043 57.5217 38.3043 58.3043 36.1304C59.2609 33.3477 59.8696 29.6956 59.4348 26.4782Z" fill="white"/>
<path d="M50 56.0869C47.2174 56.0869 46.6087 52.826 46 49.3913C45.8261 48.4347 45.6522 47.4347 45.3913 46.3913C44.7391 43.6521 42.6522 43.2174 41.4348 43.2174C41.3478 43.2174 41.2609 43.2174 41.2609 43.2174C41.1739 43.2174 41.0869 43.2174 41 43.2174C41 43.2174 40.913 43.2174 40.8261 43.2174C39.6087 43.2174 37.4782 43.6087 36.8696 46.3913C36.6522 47.3913 36.4348 48.3913 36.2609 49.3913C35.6087 52.826 35.0435 56.0869 32.2609 56.0869C32.1304 56.0869 31.9565 56.0869 31.8261 56.0434C28.8696 55.6521 27.2609 50.1739 25.6087 43.5652L25.4348 42.8695C25.3478 42.5652 25.2609 42.2608 25.1739 41.9565C24.8261 40.9565 24.3913 40.0434 23.9565 39.0869C23.2174 37.4782 22.4782 35.8695 22.0869 34C21.5217 31.2608 20.5652 24.5217 24 20.5217C25.9565 18.2174 29.3043 16.826 32.9565 16.826C33.5652 16.826 34.2174 16.8695 34.7826 16.9565C36.2609 17.1739 37.4348 17.6956 38.4783 18.1739C39.5652 18.6521 40.4782 19.0434 41.4348 19.0434C42.0869 19.0434 42.7391 18.8695 43.4348 18.5217C46.5217 17.0434 48.913 16.6521 51.9565 17.1304C55.4348 17.6956 58.2174 19.5652 59.6087 22.3043C60.1739 23.4347 60.5652 24.7826 60.7826 26.2174C61.2174 29.3478 60.7826 33.2174 59.5652 36.5217C59.2174 37.5217 58.7826 38.4347 58.3478 39.3043C57.7826 40.4782 57.2174 41.6087 56.913 42.8261L56.7391 43.5217C55.0869 50.1304 53.4783 55.6087 50.5217 56C50.3043 56.0869 50.1304 56.0869 50 56.0869ZM41.4348 40.6521C44 40.6521 47.0435 42 47.9565 45.826C48.2174 46.913 48.3913 47.913 48.5652 48.913C48.8696 50.6087 49.3913 53.4782 50 53.4782C50.0435 53.4782 50.0435 53.4782 50.087 53.4782C50.087 53.4782 50.8696 53.2608 52.1304 50C52.9565 47.7826 53.6087 45.1304 54.1739 42.9565L54.3478 42.2608C54.6956 40.826 55.3478 39.5217 55.9565 38.2608C56.3913 37.3913 56.7826 36.5652 57.0869 35.6956C58.1304 32.7826 58.5652 29.3913 58.1739 26.6521C58 25.4782 57.6956 24.3913 57.2609 23.5217C55.913 20.826 53.1304 20 51.5652 19.7826C49.0435 19.3913 47.2174 19.6956 44.6087 20.913C43.5217 21.4347 42.5217 21.6956 41.4783 21.6956C39.9565 21.6956 38.6522 21.1304 37.4348 20.6087C36.4348 20.1739 35.5217 19.7391 34.4348 19.6087C33.9565 19.5217 33.4782 19.5217 32.9565 19.5217C30.1304 19.5217 27.4348 20.5652 25.9565 22.3043C23.2174 25.5217 24.2609 31.6956 24.6087 33.5217C24.9565 35.0869 25.6087 36.5217 26.3043 38.0434C26.7826 39.0434 27.2174 40.0434 27.6087 41.1739C27.7391 41.5652 27.8696 41.9565 27.9565 42.3043L28.1304 43C28.6522 45.1304 29.3478 47.826 30.1739 50.0434C31.3913 53.3478 32.1739 53.5217 32.2174 53.5217C32.2609 53.5217 32.2609 53.5217 32.3043 53.5217C32.913 53.5217 33.4348 50.6521 33.7391 48.9565C33.9131 47.9565 34.1304 46.913 34.3478 45.8695C35.2174 42.0434 38.3043 40.6956 40.8696 40.6956C41 40.6956 41.087 40.6956 41.1739 40.6956C41.2174 40.6521 41.3043 40.6521 41.4348 40.6521Z" fill="#393A3A"/>
<path d="M27.9565 30.6956C27.3043 30.6956 26.7391 30.1738 26.6522 29.5216C26.3913 26.913 26.9131 24.8695 28.1304 23.4782C29.5217 21.8695 31.3044 21.739 31.5217 21.739C32.2609 21.6956 32.8696 22.2608 32.8696 22.9999C32.9131 23.6956 32.3478 24.3043 31.6522 24.3477C31.6087 24.3477 30.7391 24.4347 30.087 25.2173C29.3913 26.0434 29.087 27.4782 29.2609 29.3043C29.3478 29.9999 28.7826 30.6521 28.087 30.739C28.0435 30.6956 28 30.6956 27.9565 30.6956Z" fill="#393A3A"/>
</svg>
