<svg width="26" height="26" viewBox="0 0 26 26" fill="none" xmlns="http://www.w3.org/2000/svg">
<path fill-rule="evenodd" clip-rule="evenodd" d="M2.94618 1.05835C3.21959 0.77978 3.5479 0.563682 3.90935 0.424377C4.2708 0.285071 4.65713 0.22574 5.04275 0.250314C5.42837 0.274888 5.80446 0.382807 6.14612 0.566918C6.48777 0.75103 6.78718 1.00713 7.0245 1.31825L9.82931 4.99507C10.3434 5.66953 10.5247 6.54808 10.3215 7.3772L9.4668 10.8691C9.42261 11.0499 9.42499 11.2394 9.47373 11.419C9.52246 11.5987 9.61589 11.7624 9.74493 11.8943L13.5842 15.8119C13.7136 15.9438 13.8743 16.0393 14.0507 16.0891C14.227 16.1388 14.413 16.1411 14.5905 16.0957L18.0109 15.2235C18.4119 15.1212 18.8304 15.1133 19.2349 15.2003C19.6393 15.2873 20.0191 15.467 20.3454 15.7258L23.9487 18.5863C25.2441 19.6147 25.3628 21.5679 24.2034 22.7494L22.5877 24.3981C21.4314 25.578 19.7032 26.0962 18.0922 25.5174C13.9689 24.037 10.2251 21.6282 7.13856 18.4699C4.04356 15.3208 1.68301 11.5012 0.231996 7.29429C-0.333655 5.65199 0.174181 3.88692 1.33048 2.70702L2.94618 1.05835Z" fill="#21CA97"/>
</svg>
