<svg width="81" height="80" viewBox="0 0 81 80" fill="none" xmlns="http://www.w3.org/2000/svg">
<path d="M24.0236 17.5146C24.0236 18.8164 24.0237 20.5916 22.2091 20.5916C20.1183 20.5916 19.4477 17.6724 19.4477 17.5541C19.4477 17.5146 19.4477 17.5147 19.4477 17.4752V10.2563C19.4477 8.59945 19.2899 8.12608 19.1321 7.96829C19.0532 7.8894 18.8954 7.92884 18.6193 7.96829C18.422 8.00774 18.2248 8.00776 18.0276 8.00776C16.6863 8.00776 16.1341 7.06101 16.0947 7.02156C16.0552 6.94267 16.0552 6.90322 16.0552 6.82432C16.0552 6.74543 16.0946 6.62708 16.1735 6.54818C16.4102 6.3115 16.4497 5.91703 16.4891 5.44365C16.568 4.33912 16.7258 2.84009 19.9211 2.84009C23.7475 2.84009 24.0631 5.56198 24.0631 6.39038C24.0631 6.62707 24.0236 6.74542 24.0236 6.74542V14.5955C24.0236 15.2267 24.0236 15.779 24.0631 16.2918C23.9842 16.7257 24.0236 17.1202 24.0236 17.5146Z" fill="#19DEA3"/>
<path d="M25.996 31.0454H20.3156V80.0001H25.996V31.0454Z" fill="#F39C18"/>
<path d="M25.9961 79.8816C25.3254 79.8816 24.8126 79.3688 24.8126 78.6982V31.0454C24.8126 30.7692 24.9309 30.4536 25.1282 30.2564L31.7554 22.8797V3.70809C31.7554 3.03748 32.2682 2.52466 32.9388 2.52466C33.6095 2.52466 34.1223 3.03748 34.1223 3.70809V23.3531C34.1223 23.6292 34.0039 23.9448 33.8067 24.142L27.1795 31.5187V78.6982C27.1795 79.3294 26.6667 79.8816 25.9961 79.8816Z" fill="#393A3A"/>
<path d="M32.9388 20.9468H25.0887C24.4181 20.9468 23.9053 20.4339 23.9053 19.7633V3.70809C23.9053 3.03748 24.4181 2.52466 25.0887 2.52466H32.9388C33.6094 2.52466 34.1222 3.03748 34.1222 3.70809V19.8028C34.1222 20.4339 33.6094 20.9468 32.9388 20.9468ZM26.2721 18.5799H31.7554V4.89152H26.2721V18.5799Z" fill="#393A3A"/>
<path d="M32.9388 9.94084H25.9961C25.3254 9.94084 24.8126 9.42802 24.8126 8.75741C24.8126 8.0868 25.3254 7.57397 25.9961 7.57397H32.9388C33.6095 7.57397 34.1223 8.0868 34.1223 8.75741C34.1223 9.42802 33.6095 9.94084 32.9388 9.94084Z" fill="#393A3A"/>
<path d="M32.9388 15.8581H25.9961C25.3254 15.8581 24.8126 15.3453 24.8126 14.6746C24.8126 14.004 25.3254 13.4912 25.9961 13.4912H32.9388C33.6095 13.4912 34.1223 14.004 34.1223 14.6746C34.1223 15.3453 33.6095 15.8581 32.9388 15.8581Z" fill="#393A3A"/>
<path d="M64.2998 79.8816H43.787C43.4714 79.8816 43.1558 79.7632 42.9191 79.5266C42.6825 79.2899 42.5641 78.9743 42.6035 78.6587L46.0355 16.4102C46.0749 15.779 46.5877 15.3057 47.2189 15.3057H60.9073C61.5385 15.3057 62.0513 15.779 62.0907 16.4102L65.5227 78.6587C65.5227 78.9743 65.4044 79.2899 65.2071 79.5266C65.0099 79.7632 64.6154 79.8816 64.2998 79.8816ZM45.0098 77.5147H63.0375L59.7633 17.6331H48.3235L45.0098 77.5147Z" fill="#393A3A"/>
<path d="M60.9862 17.6331H47.1795C46.5089 17.6331 45.9961 17.1203 45.9961 16.4497V11.3609C45.9961 10.6903 46.5089 10.1775 47.1795 10.1775H60.9862C61.6568 10.1775 62.1697 10.6903 62.1697 11.3609V16.4497C62.1697 17.1203 61.6568 17.6331 60.9862 17.6331ZM48.363 15.2662H59.8028V12.5444H48.363V15.2662Z" fill="#393A3A"/>
<path d="M58.0276 12.5444H50.138C49.4674 12.5444 48.9546 12.0316 48.9546 11.361V3.70809C48.9546 3.03748 49.4674 2.52466 50.138 2.52466H58.0276C58.6982 2.52466 59.211 3.03748 59.211 3.70809V11.4004C59.211 12.0316 58.6982 12.5444 58.0276 12.5444ZM51.3215 10.1775H56.8441V4.89152H51.3215V10.1775Z" fill="#393A3A"/>
<path d="M64.0237 75.1479H44.0236C43.353 75.1479 42.8402 74.635 42.8402 73.9644C42.8402 73.2938 43.353 72.781 44.0236 72.781H64.0237C64.6943 72.781 65.2071 73.2938 65.2071 73.9644C65.2071 74.635 64.6943 75.1479 64.0237 75.1479Z" fill="#393A3A"/>
<path d="M57.357 32.4656H54.0434H50.7298L49.073 62.6431H54.0434H59.0138L57.357 32.4656Z" fill="#19DEA3"/>
<path d="M11.361 25.8381H8.56014C7.88953 25.8381 7.37671 25.3252 7.37671 24.6546C7.37671 23.984 7.88953 23.4712 8.56014 23.4712H11.361C12.0316 23.4712 12.5444 23.984 12.5444 24.6546C12.5444 25.3252 12.0316 25.8381 11.361 25.8381Z" fill="#5B8BD2"/>
<path d="M3.98421 25.8381H1.18343C0.51282 25.8381 0 25.3252 0 24.6546C0 23.984 0.51282 23.4712 1.18343 23.4712H3.98421C4.65482 23.4712 5.16764 23.984 5.16764 24.6546C5.16764 25.3252 4.61538 25.8381 3.98421 25.8381Z" fill="#5B8BD2"/>
<path d="M6.27218 30.927C5.60157 30.927 5.08875 30.4142 5.08875 29.7436V26.9823C5.08875 26.3116 5.60157 25.7988 6.27218 25.7988C6.94279 25.7988 7.45561 26.3116 7.45561 26.9823V29.783C7.45561 30.4142 6.94279 30.927 6.27218 30.927Z" fill="#5B8BD2"/>
<path d="M6.27218 23.5502C5.60157 23.5502 5.08875 23.0374 5.08875 22.3668V19.566C5.08875 18.8954 5.60157 18.3826 6.27218 18.3826C6.94279 18.3826 7.45561 18.8954 7.45561 19.566V22.3668C7.45561 22.9979 6.94279 23.5502 6.27218 23.5502Z" fill="#5B8BD2"/>
<path d="M79.8027 7.49504H77.0019C76.3313 7.49504 75.8185 6.98222 75.8185 6.31161C75.8185 5.64099 76.3313 5.12817 77.0019 5.12817H79.8027C80.4734 5.12817 80.9862 5.64099 80.9862 6.31161C80.9862 6.98222 80.4734 7.49504 79.8027 7.49504Z" fill="#3487E8"/>
<path d="M72.426 7.49504H69.6252C68.9546 7.49504 68.4418 6.98222 68.4418 6.31161C68.4418 5.64099 68.9546 5.12817 69.6252 5.12817H72.426C73.0966 5.12817 73.6094 5.64099 73.6094 6.31161C73.6094 6.98222 73.0571 7.49504 72.426 7.49504Z" fill="#3487E8"/>
<path d="M74.7141 12.5839C74.0435 12.5839 73.5306 12.0711 73.5306 11.4005V8.59969C73.5306 7.92908 74.0435 7.41626 74.7141 7.41626C75.3847 7.41626 75.8975 7.92908 75.8975 8.59969V11.4005C75.8975 12.0711 75.3452 12.5839 74.7141 12.5839Z" fill="#3487E8"/>
<path d="M74.7141 5.16767C74.0435 5.16767 73.5306 4.65485 73.5306 3.98424V1.18343C73.5306 0.51282 74.0435 0 74.7141 0C75.3847 0 75.8975 0.51282 75.8975 1.18343V3.98424C75.8975 4.65485 75.3452 5.16767 74.7141 5.16767Z" fill="#3487E8"/>
</svg>
