<svg width="35" height="35" viewBox="0 0 35 35" fill="none" xmlns="http://www.w3.org/2000/svg">
<path d="M29.7521 5.08822C28.1475 3.46876 26.2367 2.18485 24.1309 1.3113C22.0251 0.437751 19.7666 -0.00797182 17.4868 0.00010791C7.93404 0.00010791 0.14875 7.78321 0.14 17.3382C0.14 20.3985 0.940622 23.3757 2.45218 26.0116L0 35L9.19622 32.5894C11.7403 33.9739 14.5904 34.6996 17.4868 34.7003H17.4956C27.0505 34.7003 34.8336 26.9172 34.8424 17.3535C34.8446 15.0742 34.3957 12.817 33.5217 10.712C32.6477 8.60695 31.3658 6.69566 29.7499 5.08822H29.7521ZM17.4868 31.7647C14.9034 31.7656 12.3674 31.0704 10.1456 29.7522L9.62059 29.4372L4.16499 30.8678L5.62186 25.5457L5.28061 24.9966C3.83644 22.7004 3.07266 20.042 3.0778 17.3294C3.0778 9.39758 9.54622 2.92697 17.4956 2.92697C19.3894 2.92358 21.2651 3.29507 23.0147 4.02005C24.7642 4.74502 26.3529 5.80913 27.6893 7.15102C29.0303 8.48769 30.0934 10.0766 30.8172 11.8262C31.5411 13.5758 31.9114 15.4513 31.9068 17.3447C31.898 25.305 25.4296 31.7647 17.4868 31.7647ZM25.3946 20.9716C24.9637 20.755 22.8352 19.7072 22.4349 19.5585C22.0368 19.4163 21.7459 19.3419 21.4615 19.775C21.1706 20.206 20.3393 21.1882 20.0899 21.4704C19.8406 21.7613 19.5824 21.7941 19.1493 21.5797C18.7184 21.361 17.3206 20.906 15.6668 19.425C14.3762 18.2766 13.5121 16.8547 13.254 16.4238C13.0046 15.9907 13.23 15.7588 13.4465 15.5422C13.6368 15.3497 13.8775 15.0347 14.094 14.7854C14.3128 14.536 14.385 14.3523 14.5271 14.0635C14.6693 13.7704 14.6015 13.521 14.4943 13.3044C14.385 13.0879 13.5209 10.9507 13.1556 10.0888C12.8056 9.23789 12.449 9.35602 12.1821 9.34508C11.9328 9.32977 11.6418 9.32977 11.3509 9.32977C11.1312 9.33523 10.915 9.38604 10.7159 9.47902C10.5167 9.572 10.339 9.70514 10.1937 9.87008C9.7956 10.3032 8.68216 11.351 8.68216 13.4882C8.68216 15.6254 10.2353 17.6794 10.454 17.9704C10.6684 18.2613 13.5034 22.6341 17.8543 24.5153C18.8824 24.9638 19.6918 25.2285 20.324 25.4297C21.3631 25.7622 22.3015 25.7119 23.0496 25.6047C23.8809 25.4778 25.6112 24.5547 25.9765 23.5419C26.3352 22.5269 26.3352 21.6607 26.2259 21.4791C26.1187 21.2954 25.8277 21.1882 25.3946 20.9716Z" fill="#0DBF42"/>
</svg>
