<svg width="80" height="62" viewBox="0 0 80 62" fill="none" xmlns="http://www.w3.org/2000/svg">
<path d="M22.3745 61.1403C22.1787 61.1403 21.9339 61.1403 21.6891 61.0913C18.7026 60.6996 16.3525 56.636 13.8066 47.5785C13.6108 46.7951 14.0514 45.9628 14.8347 45.767C15.6181 45.5711 16.4504 46.0117 16.6463 46.7951C19.5349 57.0766 21.5422 58.1048 22.0808 58.2027C23.5985 58.3985 24.284 55.412 25.1652 50.4671C25.459 48.9004 25.7528 47.2357 26.1444 45.5711C27.7111 38.9126 33.4394 37.5907 36.377 37.8355C39.3146 37.5907 45.0918 38.9616 46.6095 45.5711C47.0012 47.2847 47.295 48.9004 47.5887 50.4671C48.519 55.412 49.1554 58.3985 50.6732 58.2027C50.918 58.1537 52.3378 57.7131 54.3452 52.3765C55.6671 48.8025 56.7442 44.494 57.6255 41.0179L57.9192 39.9408C58.5067 37.6886 59.4859 35.6813 60.4162 33.6739C61.1016 32.2541 61.738 30.9322 62.2276 29.5613C62.5214 28.778 63.3537 28.3863 64.0881 28.6801C64.8715 28.9738 65.2632 29.8061 64.9694 30.5405C64.4308 32.0583 63.6964 33.5271 63.011 34.9469C62.0808 36.8563 61.1995 38.7168 60.7099 40.6262L60.4162 41.7033C57.8213 51.9359 55.3733 60.5038 51.0159 61.0913C46.6095 61.6788 45.6304 56.4891 44.6512 51.0056C44.3574 49.4389 44.0636 47.8722 43.672 46.2566C42.3011 40.4304 37.0135 40.7241 36.426 40.7731C36.328 40.7731 36.2301 40.7731 36.1322 40.7731C35.5447 40.7241 30.257 40.4304 28.8862 46.2566C28.4945 47.8722 28.2007 49.4879 27.907 51.0056C27.1236 56.1953 26.1934 61.1403 22.3745 61.1403Z" fill="#393A3A"/>
<path d="M9.64503 32.45C9.05751 32.45 8.51895 32.1073 8.27415 31.5688C7.4908 29.6593 6.95225 28.0926 6.60953 26.5259C5.72826 22.3154 4.21051 11.7891 9.49814 5.62016C13.6107 0.822121 20.8078 -0.54875 26.0954 0.185644C28.3476 0.479401 30.2081 1.31172 31.8237 2.04611C34.7123 3.31906 36.8176 4.24929 40.2448 2.63362C44.9449 0.381482 48.7637 -0.254994 53.4149 0.528359C58.8004 1.36067 63.0599 4.24929 65.1162 8.41086C65.5569 9.34109 65.9486 10.3203 66.2423 11.3974C66.4871 12.1807 65.9975 13.0131 65.2142 13.2089C64.4308 13.4537 63.5985 12.9641 63.4027 12.1807C63.1579 11.2995 62.8151 10.4672 62.4235 9.68381C60.1713 5.17953 55.4712 3.80865 52.8764 3.36802C48.8127 2.73154 45.6303 3.2701 41.4688 5.22848C36.8176 7.43167 33.6842 6.06079 30.5997 4.68993C29.082 4.00449 27.4663 3.31906 25.6548 3.0253C21.2974 2.38883 15.0306 3.5149 11.7013 7.48063C7.14808 12.7683 8.86166 22.9029 9.44918 25.8405C9.74294 27.2113 10.1836 28.6312 10.918 30.3448C11.2117 31.0792 10.869 31.9604 10.1346 32.2542C9.98775 32.4011 9.79191 32.45 9.64503 32.45Z" fill="#393A3A"/>
<path d="M13.6108 20.8956C12.8764 20.8956 12.2399 20.3081 12.142 19.5737C11.7503 15.3142 12.5337 11.9849 14.4921 9.73278C16.6952 7.18688 19.6328 7.04 19.7307 7.04C20.563 6.99104 21.2485 7.62752 21.2485 8.45983C21.2974 9.24319 20.661 9.92862 19.8776 9.97758C19.7797 9.97758 18.0171 10.1245 16.6463 11.7401C15.2754 13.3558 14.7369 15.9017 15.0306 19.3289C15.1285 20.1122 14.4921 20.8466 13.7087 20.9445C13.7087 20.8956 13.6597 20.8956 13.6108 20.8956Z" fill="#393A3A"/>
<path d="M13.5128 29.4635C13.5128 36.8564 5.72827 37.5908 5.72827 37.5908C11.0649 37.5908 13.5128 44.0535 13.5128 44.0535C13.5128 44.0535 15.9119 37.5908 21.2974 37.5908C21.2974 37.5908 13.5128 36.8074 13.5128 29.4635Z" fill="#19DEA3"/>
<path d="M3.62301 44.2003C3.62301 47.6275 0 47.9702 0 47.9702C2.49694 47.9702 3.62301 50.9567 3.62301 50.9567C3.62301 50.9567 4.74908 47.9702 7.24602 47.9702C7.19706 47.9702 3.62301 47.6275 3.62301 44.2003Z" fill="#19DEA3"/>
<path d="M76.377 8.50879C76.377 11.936 72.754 12.2787 72.754 12.2787C75.2509 12.2787 76.377 15.2652 76.377 15.2652C76.377 15.2652 77.5031 12.2787 80 12.2787C80 12.2787 76.377 11.936 76.377 8.50879Z" fill="#19DEA3"/>
<path d="M65.7038 14.5798C65.7038 19.5248 60.514 20.0143 60.514 20.0143C64.0881 20.0143 65.7038 24.3228 65.7038 24.3228C65.7038 24.3228 67.3194 20.0143 70.8935 20.0143C70.9424 20.0143 65.7038 19.5248 65.7038 14.5798Z" fill="#19DEA3"/>
</svg>
